<?xml version="1.0" encoding="iso-8859-1"?>
<!-- Generator: Adobe Illustrator 19.0.0, SVG Export Plug-In . SVG Version: 6.00 Build 0)  -->
<svg version="1.1" id="Capa_1" xmlns="http://www.w3.org/2000/svg" xmlns:xlink="http://www.w3.org/1999/xlink" x="0px" y="0px"
	 viewBox="0 0 62 62" style="enable-background:new 0 0 62 62;" xml:space="preserve" width="16px" height="16px">
<rect x="6" y="33.5" style="fill:#ECF0F1;" width="50" height="19"/>
<path style="fill:#AF8066;" d="M50.172,23.5H10.828c-1.811,0-3.548-0.719-4.828-2l0,0l5.027-2.234
	c2.605-1.158,4.871-2.963,6.582-5.244L18,13.5h24l0,0c1.953,2.804,4.719,4.942,7.924,6.126L55,21.5l0,0
	C53.719,22.781,51.983,23.5,50.172,23.5z"/>
<path style="fill:#CBB292;" d="M47.172,13.5H13.828c-1.811,0-3.548-0.719-4.828-2l0,0l5.027-2.234
	c2.605-1.158,4.871-2.963,6.582-5.244L21,3.5h18l0,0c1.953,2.804,4.719,4.942,7.924,6.126L52,11.5l0,0
	C50.719,12.781,48.983,13.5,47.172,13.5z"/>
<path style="fill:#CB8252;" d="M55.172,33.5H6.828c-1.811,0-3.548-0.719-4.828-2l0,0l5.027-2.234
	c2.605-1.158,4.871-2.963,6.582-5.244L14,23.5h33l0,0c1.953,2.804,4.719,4.942,7.924,6.126L60,31.5l0,0
	C58.719,32.781,56.983,33.5,55.172,33.5z"/>
<path style="fill:#CBB292;" d="M21,52.5h-9V41.729c0-1.783,1.446-3.229,3.229-3.229h2.542c1.783,0,3.229,1.446,3.229,3.229V52.5z"/>
<path style="fill:#CBB292;" d="M36,52.5H26V41.729c0-1.783,1.446-3.229,3.229-3.229h3.542c1.783,0,3.229,1.446,3.229,3.229V52.5z"/>
<path style="fill:#CBB292;" d="M50,52.5h-9V41.729c0-1.783,1.446-3.229,3.229-3.229h2.542c1.783,0,3.229,1.446,3.229,3.229V52.5z"/>
<rect x="3" y="52.5" style="fill:#F5EFCA;" width="56" height="3"/>
<rect y="55.5" style="fill:#BDC3C7;" width="62" height="3"/>
</svg>
