<svg version="1.1" xmlns="http://www.w3.org/2000/svg" xmlns:xlink="http://www.w3.org/1999/xlink" viewBox="56 -10 400 400" width="16" height="16">
<g fill="orange">
	<path d="M350.161,288.368H161.839c-26.001,0-47.08,21.078-47.08,47.081c0,26.003,21.079,47.08,47.08,47.08h188.322
		c26.001,0,47.081-21.078,47.081-47.08C397.241,309.446,376.162,288.368,350.161,288.368z"/>
	<path d="M276.354,35.31c2.013-3.466,3.186-7.48,3.186-11.77C279.54,10.56,268.98,0,256,0c-12.975,0-23.536,10.558-23.54,23.54
		c0,4.29,1.172,8.304,3.185,11.772c-5.557,7.542-9.07,18.027-9.07,29.423c0,22.33,13.476,41.195,29.425,41.195
		c15.95,0,29.425-18.865,29.425-41.195C285.425,53.34,281.911,42.855,276.354,35.31z"/>
	<path d="M318.234,85.741c-7.745,32.001-32.703,55.501-62.234,55.501s-54.49-23.5-62.234-55.501
		c-26.48,21.901-43.697,61.451-43.697,96.696c0,45.503,31.618,82.391,70.621,82.391c9.735,0,17.655-7.92,17.655-17.655
		s-7.92-17.655-17.655-17.655h-17.655v-35.31h17.655c13.556,0,25.932,5.125,35.31,13.53c9.378-8.406,21.755-13.53,35.31-13.53
		h17.655v35.31H291.31c-9.735,0-17.655,7.92-17.655,17.655s7.92,17.655,17.655,17.655c39.003,0,70.621-36.888,70.621-82.391
		C361.931,147.191,344.715,107.644,318.234,85.741z"/>
</g>
</svg>
