<svg  viewBox="56 56 400 400" xmlns="http://www.w3.org/2000/svg" width="16" height="16">
  <title/>
  <path fill="#008543" d="M256,167.42a8,8,0,0,1-8-8,7.85,7.85,0,0,1,6.21-7.61,44,44,0,0,1,4.55-87.72A33.71,33.71,0,1,0,304.09,104a44.09,44.09,0,0,1-44.58,48.36,7.91,7.91,0,0,1-3.51,15Zm135.41,150.8c-14.33-79.31-106.88-120.91-130.88-130.54a10.68,10.68,0,1,0-9.05,0c-24,9.62-116.55,51.23-130.88,130.54-4.37,24.17.06,44.81,3.74,57.26a387.76,387.76,0,0,0,38,13.14,391.48,391.48,0,0,0,93.69,15h0a391.48,391.48,0,0,0,93.69-15,387.76,387.76,0,0,0,38-13.14C391.35,363,395.78,342.4,391.41,318.23Zm-40.71,78A395.61,395.61,0,0,1,256,411.47h0a395.61,395.61,0,0,1-94.68-15.2c-8.93-2.58-17.26-5.43-25.3-8.36,1,6.12,3,31.48,4.08,37L141.73,440l6.31.83,6.36.79-1-9.74-.07-.68v-.11c-.42-4.19,4.27-7,10.48-6.3s11.51,4.52,11.82,8.69v.11l.05.68.75,9.72,6.39.58,6.4.53q-.32-4.85-.63-9.71l0-.68v-.11c-.28-4.17,4.54-7.14,10.79-6.73s11.45,4.06,11.63,8.23v.11c0,.23,0,.45,0,.68q.22,4.85.43,9.7l6.42.32,6.42.28q-.16-4.84-.32-9.69c0-.23,0-.45,0-.67v-.11c-.14-4.17,4.81-7.33,11.07-7.16s11.37,3.61,11.41,7.77c0,0,0,.07,0,.11q0,.34,0,.68.06,4.84.12,9.68l3.66,0v0h2.31v0h0v0h6.86v0h0v0h2.31v0l3.66,0q.06-4.84.12-9.68,0-.34,0-.68s0-.07,0-.11c0-4.16,5.15-7.6,11.41-7.77s11.21,3,11.07,7.16v.11c0,.23,0,.45,0,.67q-.16,4.84-.32,9.69l6.42-.28,6.42-.32q.22-4.85.43-9.7,0-.34,0-.68v-.11c.18-4.17,5.39-7.81,11.63-8.23s11.07,2.55,10.79,6.73v.11l0,.68q-.32,4.85-.63,9.71l6.4-.53,6.39-.58.75-9.72c0-.23,0-.45.05-.68v-.11c.31-4.18,5.61-8,11.82-8.69s10.89,2.12,10.48,6.3v.11l-.07.68-1,9.74,6.36-.79,6.31-.83q.82-7.55,1.65-15.11c1.12-5.49,3.1-30.85,4.08-37C368,390.84,359.63,393.69,350.7,396.27Z" />
</svg>