<?xml version="1.0" encoding="UTF-8" standalone="no"?>
<!-- Created with Inkscape (http://www.inkscape.org/) -->

<svg
   xmlns:dc="http://purl.org/dc/elements/1.1/"
   xmlns:cc="http://creativecommons.org/ns#"
   xmlns:rdf="http://www.w3.org/1999/02/22-rdf-syntax-ns#"
   xmlns:svg="http://www.w3.org/2000/svg"
   xmlns="http://www.w3.org/2000/svg"
   xmlns:xlink="http://www.w3.org/1999/xlink"
   xmlns:sodipodi="http://sodipodi.sourceforge.net/DTD/sodipodi-0.dtd"
   xmlns:inkscape="http://www.inkscape.org/namespaces/inkscape"
   width="300mm"
   height="66mm"
   viewBox="0 0 300 66"
   version="1.1"
   id="svg8"
   inkscape:version="0.92.2 (5c3e80d, 2017-08-06)"
   sodipodi:docname="logo1.svg">
  <defs
     id="defs2">
    <linearGradient
       inkscape:collect="always"
       id="linearGradient964">
      <stop
         style="stop-color:#3b8ecc;stop-opacity:1;"
         offset="0"
         id="stop960" />
      <stop
         style="stop-color:#3b8ecc;stop-opacity:0;"
         offset="1"
         id="stop962" />
    </linearGradient>
    <linearGradient
       inkscape:collect="always"
       xlink:href="#linearGradient964"
       id="linearGradient966"
       x1="377.42755"
       y1="125.07378"
       x2="919.50756"
       y2="125.07378"
       gradientUnits="userSpaceOnUse" />
  </defs>
  <sodipodi:namedview
     id="base"
     pagecolor="#ffffff"
     bordercolor="#666666"
     borderopacity="1.0"
     inkscape:pageopacity="0.0"
     inkscape:pageshadow="2"
     inkscape:zoom="2.8284271"
     inkscape:cx="551.3776"
     inkscape:cy="147.93968"
     inkscape:document-units="mm"
     inkscape:current-layer="layer1"
     showgrid="false"
     inkscape:window-width="3840"
     inkscape:window-height="2035"
     inkscape:window-x="-13"
     inkscape:window-y="-13"
     inkscape:window-maximized="1" />
  <metadata
     id="metadata5">
    <rdf:RDF>
      <cc:Work
         rdf:about="">
        <dc:format>image/svg+xml</dc:format>
        <dc:type
           rdf:resource="http://purl.org/dc/dcmitype/StillImage" />
        <dc:title></dc:title>
      </cc:Work>
    </rdf:RDF>
  </metadata>
  <g
     inkscape:label="Layer 1"
     inkscape:groupmode="layer"
     id="layer1"
     transform="translate(0,-231)">
    <flowRoot
       xml:space="preserve"
       id="flowRoot826"
       style="fill:black;fill-opacity:1;stroke:none;font-family:sans-serif;font-style:normal;font-weight:normal;font-size:40px;line-height:1.25;letter-spacing:0px;word-spacing:0px"><flowRegion
         id="flowRegion828"><rect
           id="rect830"
           width="537.90625"
           height="130.81476"
           x="352.54324"
           y="45.398006" /></flowRegion><flowPara
         id="flowPara832" /></flowRoot>    <g
       aria-label="Cockleshell.org"
       style="font-style:normal;font-weight:normal;font-size:14.11111069px;line-height:1.25;font-family:sans-serif;letter-spacing:0px;word-spacing:0px;fill:#3b8ecc;fill-opacity:1;stroke:none;stroke-width:0.26458332"
       id="text836">
      <path
         d="m 124.15347,281.27085 -0.79022,0.60678 q -1.41111,-1.74978 -3.62655,-1.74978 -1.80623,0 -3.11856,1.27 -1.29822,1.27 -1.29822,3.09033 0,1.86267 1.27,3.10445 1.28411,1.22766 3.20322,1.22766 2.14489,0 3.57011,-1.66511 l 0.79022,0.60678 q -0.74789,0.98778 -1.89089,1.50989 -1.143,0.508 -2.52588,0.508 -2.413,0 -3.95112,-1.524 -1.53811,-1.524 -1.53811,-3.85233 0,-1.43934 0.70556,-2.65289 0.71967,-1.22767 1.97555,-1.91911 1.27,-0.69145 2.794,-0.69145 1.38289,0 2.54,0.55033 1.15712,0.55034 1.89089,1.58045 z"
         style="font-style:normal;font-variant:normal;font-weight:normal;font-stretch:normal;font-size:14.11111069px;line-height:0.25;font-family:STXihei;-inkscape-font-specification:STXihei;fill:#3b8ecc;fill-opacity:1;stroke-width:0.26458332"
         id="path878" />
      <path
         d="m 125.67042,285.82874 q 0,-1.651 1.12889,-2.82222 1.143,-1.17123 2.77989,-1.17123 1.62277,0 2.75166,1.17123 1.143,1.17122 1.143,2.82222 0,1.62278 -1.12889,2.794 -1.11477,1.15711 -2.76577,1.15711 -1.651,0 -2.77989,-1.15711 -1.12889,-1.17122 -1.12889,-2.794 z m 6.82978,0.0141 q 0,-1.24178 -0.87489,-2.14489 -0.86078,-0.91722 -2.04611,-0.91722 -1.19945,0 -2.06023,0.91722 -0.86077,0.90311 -0.86077,2.14489 0,1.27 0.83255,2.14489 0.83256,0.87489 2.08845,0.87489 1.21355,0 2.06022,-0.87489 0.86078,-0.889 0.86078,-2.14489 z"
         style="font-style:normal;font-variant:normal;font-weight:normal;font-stretch:normal;font-size:14.11111069px;line-height:0.25;font-family:STXihei;-inkscape-font-specification:STXihei;fill:#3b8ecc;fill-opacity:1;stroke-width:0.26458332"
         id="path880" />
      <path
         d="m 143.08772,283.58507 -0.762,0.47978 q -0.98778,-1.31233 -2.70934,-1.31233 -1.35466,0 -2.27188,0.87488 -0.91723,0.86078 -0.91723,2.14489 0,1.28411 0.90311,2.20134 0.90312,0.91722 2.286,0.91722 1.651,0 2.70934,-1.31233 l 0.762,0.508 q -0.56445,0.81844 -1.524,1.25588 -0.94545,0.43745 -2.04611,0.43745 -1.73567,0 -2.90689,-1.143 -1.15711,-1.143 -1.15711,-2.77989 0,-1.66511 1.17122,-2.83633 1.18533,-1.18534 3.03389,-1.18534 1.08655,0 2.00378,0.46567 0.93133,0.46567 1.42522,1.28411 z"
         style="font-style:normal;font-variant:normal;font-weight:normal;font-stretch:normal;font-size:14.11111069px;line-height:0.25;font-family:STXihei;-inkscape-font-specification:STXihei;fill:#3b8ecc;fill-opacity:1;stroke-width:0.26458332"
         id="path882" />
      <path
         d="m 144.23755,279.14007 h 0.97367 v 5.91256 l 3.45722,-3.01978 h 1.42523 l -4.12045,3.57011 4.36033,3.92289 h -1.36877 l -3.75356,-3.37256 v 3.37256 h -0.97367 z"
         style="font-style:normal;font-variant:normal;font-weight:normal;font-stretch:normal;font-size:14.11111069px;line-height:0.25;font-family:STXihei;-inkscape-font-specification:STXihei;fill:#3b8ecc;fill-opacity:1;stroke-width:0.26458332"
         id="path884" />
      <path
         d="m 151.32067,279.14007 h 0.95955 v 10.38578 h -0.95955 z"
         style="font-style:normal;font-variant:normal;font-weight:normal;font-stretch:normal;font-size:14.11111069px;line-height:0.25;font-family:STXihei;-inkscape-font-specification:STXihei;fill:#3b8ecc;fill-opacity:1;stroke-width:0.26458332"
         id="path886" />
      <path
         d="m 160.58065,287.09874 0.81844,0.42333 q -1.21356,2.25778 -3.58422,2.25778 -1.69334,0 -2.794,-1.15711 -1.10067,-1.17122 -1.10067,-2.794 0,-1.651 1.10067,-2.82222 1.11478,-1.17123 2.73755,-1.17123 1.63689,0 2.73756,1.08656 1.11478,1.08655 1.15711,2.96333 h -6.74511 q 0.0423,1.35467 0.84667,2.18722 0.81844,0.81845 1.97555,0.81845 1.905,0 2.85045,-1.79211 z m 0,-2.04611 q -0.19756,-1.07245 -0.98778,-1.67923 -0.79022,-0.60677 -1.82034,-0.60677 -2.11666,0 -2.76577,2.286 z"
         style="font-style:normal;font-variant:normal;font-weight:normal;font-stretch:normal;font-size:14.11111069px;line-height:0.25;font-family:STXihei;-inkscape-font-specification:STXihei;fill:#3b8ecc;fill-opacity:1;stroke-width:0.26458332"
         id="path888" />
      <path
         d="m 167.21838,282.85129 -0.62089,0.635 q -0.77611,-0.74789 -1.50989,-0.74789 -0.47978,0 -0.80433,0.31045 -0.32456,0.29633 -0.32456,0.71967 0,0.46566 0.33867,0.79022 0.35278,0.31044 1.08656,0.70555 0.95955,0.49389 1.397,1.016 0.45155,0.508 0.45155,1.25589 0,0.94545 -0.66322,1.59456 -0.64911,0.64911 -1.60867,0.64911 -0.635,0 -1.22766,-0.28222 -0.57856,-0.28223 -0.98778,-0.79023 l 0.60678,-0.67733 q 0.74788,0.83256 1.56633,0.83256 0.57855,0 0.98778,-0.381 0.40922,-0.381 0.40922,-0.90311 0,-0.508 -0.36689,-0.83256 -0.35278,-0.33867 -1.11478,-0.73378 -0.91722,-0.45155 -1.34055,-0.94544 -0.40923,-0.508 -0.40923,-1.24178 0,-0.86078 0.57856,-1.42522 0.59267,-0.56445 1.48167,-0.56445 1.04422,0 2.07433,1.016 z"
         style="font-style:normal;font-variant:normal;font-weight:normal;font-stretch:normal;font-size:14.11111069px;line-height:0.25;font-family:STXihei;-inkscape-font-specification:STXihei;fill:#3b8ecc;fill-opacity:1;stroke-width:0.26458332"
         id="path890" />
      <path
         d="m 168.93531,279.14007 h 0.97366 v 4.23333 q 1.15711,-1.53811 2.80811,-1.53811 0.84667,0 1.524,0.46567 0.67734,0.45156 0.95956,1.19944 0.28222,0.73378 0.28222,2.17312 v 3.85233 h -0.97367 v -3.57011 q 0,-1.15711 -0.0705,-1.59456 -0.0706,-0.43744 -0.31045,-0.83255 -0.23988,-0.39511 -0.64911,-0.59267 -0.39511,-0.21167 -0.95955,-0.21167 -0.57856,0 -1.10067,0.26811 -0.52211,0.26812 -0.889,0.74789 -0.36689,0.47978 -0.49389,0.98778 -0.127,0.508 -0.127,2.04611 v 2.75167 h -0.97366 z"
         style="font-style:normal;font-variant:normal;font-weight:normal;font-stretch:normal;font-size:14.11111069px;line-height:0.25;font-family:STXihei;-inkscape-font-specification:STXihei;fill:#3b8ecc;fill-opacity:1;stroke-width:0.26458332"
         id="path892" />
      <path
         d="m 183.84193,287.09874 0.81844,0.42333 q -1.21355,2.25778 -3.58422,2.25778 -1.69333,0 -2.794,-1.15711 -1.10066,-1.17122 -1.10066,-2.794 0,-1.651 1.10066,-2.82222 1.11478,-1.17123 2.73756,-1.17123 1.63689,0 2.73755,1.08656 1.11478,1.08655 1.15711,2.96333 h -6.74511 q 0.0423,1.35467 0.84667,2.18722 0.81844,0.81845 1.97556,0.81845 1.905,0 2.85044,-1.79211 z m 0,-2.04611 q -0.19756,-1.07245 -0.98778,-1.67923 -0.79022,-0.60677 -1.82033,-0.60677 -2.11667,0 -2.76578,2.286 z"
         style="font-style:normal;font-variant:normal;font-weight:normal;font-stretch:normal;font-size:14.11111069px;line-height:0.25;font-family:STXihei;-inkscape-font-specification:STXihei;fill:#3b8ecc;fill-opacity:1;stroke-width:0.26458332"
         id="path894" />
      <path
         d="m 186.57088,279.14007 h 0.95956 v 10.38578 h -0.95956 z"
         style="font-style:normal;font-variant:normal;font-weight:normal;font-stretch:normal;font-size:14.11111069px;line-height:0.25;font-family:STXihei;-inkscape-font-specification:STXihei;fill:#3b8ecc;fill-opacity:1;stroke-width:0.26458332"
         id="path896" />
      <path
         d="m 189.38209,279.14007 h 0.95955 v 10.38578 h -0.95955 z"
         style="font-style:normal;font-variant:normal;font-weight:normal;font-stretch:normal;font-size:14.11111069px;line-height:0.25;font-family:STXihei;-inkscape-font-specification:STXihei;fill:#3b8ecc;fill-opacity:1;stroke-width:0.26458332"
         id="path898" />
      <path
         d="m 192.54606,288.86263 q 0,-0.35278 0.254,-0.59267 0.254,-0.254 0.59267,-0.254 0.35277,0 0.59266,0.254 0.254,0.23989 0.254,0.59267 0,0.36689 -0.254,0.62089 -0.23989,0.23988 -0.59266,0.23988 -0.33867,0 -0.59267,-0.254 -0.254,-0.254 -0.254,-0.60677 z"
         style="font-style:normal;font-variant:normal;font-weight:normal;font-stretch:normal;font-size:14.11111069px;line-height:0.25;font-family:STXihei;-inkscape-font-specification:STXihei;fill:#3b8ecc;fill-opacity:1;stroke-width:0.26458332"
         id="path900" />
      <path
         d="m 195.89524,285.82874 q 0,-1.651 1.12889,-2.82222 1.143,-1.17123 2.77989,-1.17123 1.62278,0 2.75167,1.17123 1.143,1.17122 1.143,2.82222 0,1.62278 -1.12889,2.794 -1.11478,1.15711 -2.76578,1.15711 -1.651,0 -2.77989,-1.15711 -1.12889,-1.17122 -1.12889,-2.794 z m 6.82978,0.0141 q 0,-1.24178 -0.87489,-2.14489 -0.86078,-0.91722 -2.04611,-0.91722 -1.19944,0 -2.06022,0.91722 -0.86078,0.90311 -0.86078,2.14489 0,1.27 0.83256,2.14489 0.83255,0.87489 2.08844,0.87489 1.21356,0 2.06022,-0.87489 0.86078,-0.889 0.86078,-2.14489 z"
         style="font-style:normal;font-variant:normal;font-weight:normal;font-stretch:normal;font-size:14.11111069px;line-height:0.25;font-family:STXihei;-inkscape-font-specification:STXihei;fill:#3b8ecc;fill-opacity:1;stroke-width:0.26458332"
         id="path902" />
      <path
         d="m 205.11399,282.03285 h 0.98778 v 1.08655 q 0.39511,-0.66322 0.762,-0.97366 0.381,-0.31045 0.90311,-0.31045 0.39511,0 0.86077,0.254 l -0.508,0.81845 q -0.21166,-0.127 -0.43744,-0.127 -0.43744,0 -0.83256,0.45155 -0.381,0.45156 -0.56444,1.17123 -0.18344,0.70555 -0.18344,2.58233 v 2.54 h -0.98778 z"
         style="font-style:normal;font-variant:normal;font-weight:normal;font-stretch:normal;font-size:14.11111069px;line-height:0.25;font-family:STXihei;-inkscape-font-specification:STXihei;fill:#3b8ecc;fill-opacity:1;stroke-width:0.26458332"
         id="path904" />
      <path
         d="m 216.2869,282.03285 h 0.97366 v 5.78555 q 0,1.53812 -0.26811,2.25778 -0.26811,0.71967 -0.77611,1.19945 -0.508,0.47977 -1.22767,0.73377 -0.71966,0.254 -1.58044,0.254 -2.93511,0 -3.86644,-2.34244 h 1.04422 q 0.81844,1.46755 2.77989,1.46755 0.94544,0 1.63689,-0.36688 0.70555,-0.36689 0.98777,-0.94545 0.29634,-0.56444 0.29634,-1.778 v -0.32455 q -0.57856,0.71966 -1.36878,1.07244 -0.79022,0.35278 -1.66511,0.35278 -1.63689,0 -2.72345,-1.11478 -1.08655,-1.11478 -1.08655,-2.62467 0,-1.56633 1.15711,-2.69522 1.15711,-1.12889 2.70933,-1.12889 1.73567,0 2.97745,1.49578 z m 0.0423,3.62655 q 0,-1.22766 -0.83256,-2.06022 -0.83255,-0.83255 -2.06022,-0.83255 -1.29822,0 -2.159,0.90311 -0.86077,0.889 -0.86077,2.06022 0,1.143 0.83255,1.96144 0.83256,0.80434 2.13078,0.80434 1.29822,0 2.11666,-0.79022 0.83256,-0.79023 0.83256,-2.04612 z"
         style="font-style:normal;font-variant:normal;font-weight:normal;font-stretch:normal;font-size:14.11111069px;line-height:0.25;font-family:STXihei;-inkscape-font-specification:STXihei;fill:#3b8ecc;fill-opacity:1;stroke-width:0.26458332"
         id="path906" />
    </g>
    <flowRoot
       xml:space="preserve"
       id="flowRoot838"
       style="fill:black;fill-opacity:1;stroke:none;font-family:sans-serif;font-style:normal;font-weight:normal;font-size:64px;line-height:1.25;letter-spacing:0px;word-spacing:0px"><flowRegion
         id="flowRegion840"><rect
           id="rect842"
           width="456.08386"
           height="131.31982"
           x="362.13968"
           y="59.035069" /></flowRegion><flowPara
         id="flowPara844" /></flowRoot>    <g
       aria-label="海舟音乐"
       transform="matrix(0.26458333,0,0,0.26458333,-6.6978553,224.3344)"
       style="font-style:normal;font-variant:normal;font-weight:normal;font-stretch:normal;font-size:146.66667175px;line-height:1.25;font-family:STXinwei;-inkscape-font-specification:STXinwei;letter-spacing:0px;word-spacing:0px;fill:#3b8ecc;fill-opacity:1;fill-rule:nonzero;stroke:none"
       id="flowRoot846">
      <path
         d="m 463.66756,84.447111 q 2.78666,0 3.66666,0.88 0.88,0.733334 0.88,2.933334 0,2.2 -1.02666,3.226666 -0.88,0.88 -8.50667,4.840001 -7.48,3.813328 -10.70667,5.426668 -3.08,1.46667 -5.28,1.46667 -2.05333,0 -9.09333,-3.813338 -0.88,-0.44 -1.61334,-0.44 -0.73333,0 -1.76,1.173328 -9.53333,11.88001 -18.18666,11.88001 -1.32,0 -1.32,-0.73334 0,-0.73333 1.61333,-2.64 7.77333,-8.653332 16.42667,-21.559999 8.65333,-12.906667 9.24,-17.013334 0.29333,-2.346666 2.34667,-2.346666 2.05333,0 5.72,2.64 3.66666,2.493333 3.66666,4.106666 0,1.466667 -3.08,4.400001 -2.93333,2.933333 -6.16,7.04 -3.08,4.106667 -3.08,4.693333 0,0.586667 1.32,0.586667 3.66667,0 7.33334,-1.613333 11.44,-5.133334 17.6,-5.133334 z m -57.34667,14.373334 q 0,4.106665 -0.73334,5.280005 -0.73333,1.02666 -2.49333,1.02666 -4.4,0 -8.36,-3.08 -3.96,-3.226665 -3.96,-8.066665 0,-1.466667 0.73333,-5.573334 0.88,-4.253333 2.78667,-5.573333 2.05333,-1.32 2.64,-1.32 0.73333,0 2.2,1.76 1.61333,1.76 3.66667,4.84 2.2,3.08 2.78666,5.426667 0.73334,2.2 0.73334,5.28 z m 90.2,45.320005 q 0,2.2 -0.88,2.93333 -0.88,0.58667 -2.2,0.58667 -1.32,0 -4.69333,-1.76 -3.22667,-1.90667 -11.44,-3.22667 -8.06667,-1.46667 -9.82667,-1.46667 -1.76,0 -2.34667,0.88 -0.44,0.88 -2.05333,8.65334 -1.46667,7.77333 -1.46667,8.36 0,0.44 1.17334,0.88 1.17333,0.29333 4.10666,1.61333 2.93334,1.32 5.57334,1.32 2.78666,0 3.81333,2.05333 1.17333,1.90667 1.17333,6.16 0,4.25334 -0.44,6.16 -0.44,1.90667 -1.61333,1.90667 -1.17333,0 -3.81333,-1.90667 -2.49334,-1.76 -7.18667,-3.66666 -4.69333,-1.76 -5.86667,-1.76 -1.02666,0 -1.76,1.61333 -2.64,5.57333 -5.42666,9.53333 -2.64,3.96 -3.52,6.74667 -0.73334,2.78667 -1.76,2.78667 -1.02667,0 -2.78667,-1.02667 -1.61333,-1.02667 -6.16,-3.37333 -4.54667,-2.2 -9.97334,-6.89334 -5.28,-4.69333 -5.28,-6.16 0,-0.44 0.58667,-0.44 0.58667,0 2.78667,1.17334 2.34666,1.17333 6.30666,1.90666 4.10667,0.88 5.42667,0.88 3.52,0 6.30667,-4.69333 2.93333,-4.69333 2.93333,-5.72 0,-1.17333 -1.46666,-1.46667 l -13.64001,-2.93333 q -12.17333,-2.49333 -17.89333,-2.49333 -2.2,0 -3.52,0.44 -1.32,0.44 -2.34667,0.44 -1.76,0 -1.76,-1.32 0,-1.32 1.02667,-4.10667 1.17333,-2.78667 3.37333,-4.4 2.2,-1.61333 4.69334,-5.72 2.49333,-4.10667 2.49333,-4.69333 0,-0.73334 -0.73333,-0.73334 -0.73334,0 -5.42667,0.88 -4.69333,0.88 -5.28,1.46667 -0.58667,0.44 -0.88,1.76 -3.37333,15.98667 -9.38667,23.76 -5.86666,7.62667 -7.77333,7.62667 -0.73333,0 -1.90667,-1.32 -1.02666,-1.17334 -3.96,-6.74667 -2.93333,-5.72 -3.66666,-9.24 -0.73334,-3.66667 -0.73334,-14.81333 0,-7.33334 1.17334,-12.32 1.32,-5.13334 2.34666,-12.17334 0.58667,-4.69333 2.93334,-4.69333 2.49333,0 6.16,1.76 3.81333,1.76 3.81333,3.96 0,2.05333 -3.96,5.13333 -3.81333,2.93334 -6.6,9.82667 -2.78667,6.74667 -2.78667,14.08 0,7.18667 1.90667,9.09333 1.90667,1.76 3.96,1.76 3.52,0 7.62667,-6.01333 4.10666,-6.01333 5.42666,-10.41333 6.6,-22.73334 8.65334,-22.73334 0.44,0 0.44,1.46667 0,1.32 -0.88,5.72 -0.73334,4.4 -0.73334,4.69333 0,1.32 1.02667,1.32 1.17333,0 3.66667,-0.29333 2.64,-0.44 4.54666,-1.17333 1.90667,-0.73334 3.81334,-1.02667 2.05333,-0.44 2.64,-1.32 0.73333,-0.88 1.90666,-4.4 1.32,-3.66667 1.90667,-7.48 0.58667,-3.96 1.32,-4.84 0.88,-0.88 6.16,-2.34667 l 10.70667,-3.08 q 5.28,-1.61333 9.68,-1.61333 4.4,0 9.53333,1.02667 5.13334,0.88 6.16,1.61333 1.17334,0.58667 1.17334,1.46667 0,0.73333 -0.58667,1.46666 -1.61333,2.05334 -2.2,8.50667 l -0.88,5.42667 q 0,1.02666 1.02667,1.46666 1.17333,0.44 6.74666,1.46667 5.72,0.88 9.24,0.88 l 4.4,-0.44 q 1.46667,0 2.64,0.88 1.17334,0.73333 1.46667,1.76 1.46667,5.86667 2.49333,7.62667 1.02667,1.76 1.02667,3.52 z m -46.49333,-14.96 q 0.14666,0 1.32,-0.14667 1.32,-0.14667 2.93333,-0.14667 1.61333,0 1.61333,-2.49333 0,-6.89333 -1.46666,-9.24 -1.32,-2.34667 -5.28,-2.34667 -3.81334,0 -8.65334,1.32 -4.69333,1.32 -5.57333,2.34667 -0.88,0.88 -1.61334,3.66667 -0.58666,2.64 -1.90666,6.01333 -0.29334,0.73333 -0.29334,1.61333 0,0.73334 1.17334,0.73334 l 3.66666,-0.44 q 1.61334,-0.14667 2.05334,-0.58667 0.58666,-0.44 1.02666,-3.52 0.58667,-3.08 2.20001,-4.84 1.76,-1.90667 2.78666,-1.90667 0.44,0 3.37334,1.61334 2.93333,1.61333 2.93333,3.08 0,1.46666 -0.58667,2.78666 -0.44,1.32 -0.44,1.90667 0,0.58667 0.73334,0.58667 z m -23.32001,25.22666 q 2.2,0 4.69334,-3.08 2.64,-3.22666 3.66666,-6.45333 1.02667,-3.37333 1.02667,-4.4 0,-1.17333 -1.61333,-1.17333 -5.28,0 -6.74667,0.58666 -1.32,0.58667 -2.05333,1.90667 -2.93334,6.01333 -4.4,7.62667 -1.32,1.61333 -1.32,2.78666 0,1.17334 2.64,1.76 2.64,0.44 4.10666,0.44 z m 22.73334,2.2 q 1.46667,0 1.90667,-1.02666 0.58666,-1.17334 1.61333,-6.6 1.17333,-5.42667 1.17333,-6.74667 0,-1.46667 -0.88,-1.90667 -0.73333,-0.44 -4.84,-0.73333 -3.96,-0.29333 -6.01333,-0.29333 -1.90667,0 -1.90667,1.17333 0,1.17333 0.73334,2.34667 0.73333,1.17333 2.2,1.90666 1.46666,0.58667 1.46666,2.49334 0,1.90666 -1.46666,4.54666 -1.32,2.49334 -1.32,2.93334 0,1.02666 1.17333,1.17333 1.32,0 3.37333,0.44 2.05334,0.29333 2.78667,0.29333 z"
         style="font-size:146.66667175px;line-height:1.25;fill:#3b8ecc;fill-opacity:1;fill-rule:nonzero"
         id="path869" />
      <path
         d="m 628.37423,125.36711 q 0.73333,0 1.46666,0.73334 0.73334,0.73333 2.78667,4.98666 2.2,4.25334 2.49334,5.42667 0.44,1.02667 0.44,3.22667 0,2.05333 -1.32,2.05333 -1.32,0 -4.40001,-1.90667 -3.08,-2.05333 -9.82666,-3.22666 -6.6,-1.32 -11.58667,-1.32 -2.2,0 -2.49333,2.05333 -0.14667,1.90667 -0.14667,22 0,20.09333 1.61333,28.74667 0.14667,1.17333 0.14667,2.05333 0,2.93333 -1.61333,2.93333 -1.61334,0 -3.22667,-1.32 -1.46667,-1.17333 -4.69333,-1.76 -3.08,-0.58666 -9.82667,-3.81333 -6.6,-3.08 -10.85333,-5.86667 -4.10667,-2.64 -4.10667,-3.52 0,-0.44 0.73333,-0.44 0.88,0 2.49334,0.44 8.50666,2.05334 12.61333,2.05334 4.10667,0 5.42667,-1.90667 1.32,-1.76 1.32,-6.6 0,-4.84 -0.88,-18.77333 -0.88,-13.93334 -1.17334,-14.81334 -0.14666,-0.88 -1.61333,-0.88 -1.32,0 -5.86667,0.88 -4.54666,0.73334 -5.13333,1.02667 -0.44,0.29333 -0.44,0.73333 0,0.44 0.73333,1.02667 6.45334,4.4 6.45334,6.01333 0,0.58667 -0.73334,1.17334 -0.73333,0.58666 -2.49333,3.96 -1.76,3.22666 -2.49333,5.28 -0.58667,2.05333 -2.05334,2.05333 -0.44,0 -1.17333,-0.14667 -0.73333,-0.29333 -1.61333,-0.29333 -0.73334,0 -1.90667,0.29333 -1.17333,0.14667 -1.76,0.14667 -1.46667,0 -1.46667,-0.88 0,-1.02667 0.44,-2.05333 1.46667,-2.93334 1.46667,-6.16 0,-3.37334 -0.58667,-5.72 -0.58666,-2.34667 -1.02666,-2.78667 -0.29334,-0.44 -1.76,-0.44 -1.32,0 -4.84,0.88 -1.32,0.44 -1.90667,1.61333 -1.32,2.2 -1.61333,3.96 l -1.61334,10.12 q -0.58666,4.69334 -0.29333,5.86667 0.29333,1.02667 0.29333,1.90667 0,0.88 -1.90666,3.08 -1.76,2.2 -4.98667,5.28 -3.08,3.08 -6.16,4.84 -2.93333,1.90666 -6.16,3.08 -3.22667,1.17333 -4.69333,1.17333 -1.32001,0 -1.32001,-0.88 0,-0.73333 1.90667,-2.78667 6.16,-6.74666 9.24,-12.02666 3.22667,-5.28 4.84,-12.17334 1.76,-7.04 1.76,-10.12 0,-1.17333 -2.05333,-0.88 -5.13333,0.73334 -10.70667,0.88 -5.57333,0.14667 -11.14667,2.34667 -5.42666,2.2 -6.30666,4.10667 -0.88,1.76 -2.05334,1.76 -1.02666,0 -2.78666,-4.25334 -1.76,-4.4 -1.76,-5.28 0,-1.02666 0.73333,-1.32 0.88,-0.44 6.6,-1.76 5.86667,-1.46666 8.94667,-1.90666 3.08,-0.44 9.38667,-2.05334 6.45333,-1.76 8.94666,-2.78666 2.64,-1.17334 3.08,-1.90667 0.44,-0.88 0.73334,-5.42667 0.29333,-4.54666 0.29333,-9.53333 0,-5.13333 -0.14667,-8.65333 -0.14666,-3.66667 -0.44,-4.25334 -0.14666,-0.73333 -0.73333,-0.73333 -0.44,0 -1.02667,0.14667 -0.58666,0.14666 -2.05333,0.14666 -2.49333,0 -2.49333,-1.46666 0,-1.613338 1.32,-3.960005 1.46666,-2.493334 7.62666,-10.266667 6.30667,-7.773334 11.88,-13.786667 5.57334,-6.013334 6.45334,-6.746667 0.88,-0.733334 1.46666,-0.733334 1.02667,0 5.72,3.813334 4.69334,3.813333 4.69334,5.133333 0,1.32 -1.46667,1.906667 -1.32,0.44 -6.45333,4.693334 -4.98667,4.253333 -10.70667,9.533333 -5.57333,5.280001 -6.01333,5.720001 -0.29334,0.44 -0.29334,1.026666 0,0.44 0.88,0.44 0.88,0 4.4,-1.76 14.66667,-6.6 27.28,-6.6 6.74667,0 11.44,2.346667 4.69334,2.2 4.69334,3.52 0,1.32 -2.64,2.933333 -0.88,0.586667 -1.76,9.973332 -0.73334,9.24 -0.73334,14.37334 0,1.61333 0.88,2.2 0.88,0.44 1.46667,0.44 l 6.01333,0.29333 q 5.42667,0.44 8.65334,0.44 3.22666,0 3.96,-0.29333 0.88,-0.29334 1.32,-0.29334 z m -43.12,-0.73333 q 5.42666,0 6.6,-0.44 1.17333,-0.58667 1.17333,-2.49333 l -0.14667,-15.25334 q 0,-3.96 -2.05333,-6.30667 -1.90667,-2.346662 -5.28,-2.346662 -2.64,0 -9.53333,3.080002 -6.89334,3.08 -8.50667,5.13333 -1.61333,1.90667 -1.61333,6.74667 l 0.44,11.73333 q 0,2.78667 0.88,2.78667 1.02666,0 4.54666,-0.73333 3.52,-0.73334 3.96,-1.17334 0.44,-0.58666 0.44,-2.34666 0,-4.25334 -1.17333,-7.77334 -0.73333,-2.49333 -0.73333,-4.4 0,-4.10666 3.08,-4.10666 1.32,0 5.72,2.2 4.4,2.2 4.4,3.22666 0,1.02667 -0.88,1.90667 -0.88,0.88 -2.05334,4.54667 -1.02666,3.66666 -1.02666,4.84 0,1.17333 1.76,1.17333 z"
         style="font-size:146.66667175px;line-height:1.25;fill:#3b8ecc;fill-opacity:1;fill-rule:nonzero"
         id="path871" />
      <path
         d="m 718.13423,57.020443 q 1.32,0 2.05333,2.346667 0.88,2.346667 1.61334,3.52 0.73333,1.026667 2.93333,3.666667 2.34667,2.493334 4.10667,6.6 1.76,4.106667 1.76,6.306667 0,2.2 -3.08,2.2 -2.05334,0 -4.98667,-0.88 -2.93333,-0.88 -5.72,-2.346666 -2.64,-1.466667 -3.52,-2.346667 -0.73333,-0.88 -0.73333,-2.2 0,-6.746667 1.76,-11.733334 1.90666,-5.133334 3.81333,-5.133334 z m 52.94667,57.053337 q 3.08,0 3.37333,2.05333 0.29334,1.90667 1.17334,3.66667 1.46666,2.49333 1.46666,6.01333 0,3.37334 -2.34666,3.37334 -1.17334,0 -2.78667,-0.88 -8.36,-4.4 -24.64,-4.4 -10.70667,0 -20.97334,1.90666 -10.12,1.90667 -17.89333,2.64 -7.77333,0.58667 -14.96,2.64 -7.04,1.90667 -10.12,1.90667 -7.92,0 -13.49333,4.69333 -1.32,1.17334 -2.2,1.17334 -0.73334,0 -1.90667,-2.34667 -1.17333,-2.34667 -1.17333,-4.98667 0,-2.64 2.93333,-2.64 2.93333,0 3.81333,-0.44 2.34667,-1.17333 8.50667,-1.46666 3.22667,-0.14667 6.01333,-1.32 11.58667,-4.4 27.13334,-8.06667 3.52,-0.88 8.06666,-6.16 4.54667,-5.28 4.54667,-6.74667 0,-1.46666 -1.61333,-3.66666 -1.46667,-2.346672 -1.90667,-2.346672 -0.44,0 -1.17333,0.88 -3.66667,5.133332 -9.24,11.000002 -5.42667,5.86667 -7.77334,5.86667 -1.02666,0 -1.90666,-0.88 -0.88,-1.02667 -0.88,-2.49334 0,-1.46666 0.73333,-3.52 0.88,-2.2 1.02667,-3.22666 l 0.73333,-3.22667 q 0,-1.46667 -3.66667,-1.46667 -2.49333,0 -3.66666,1.46667 -1.17334,1.32 -2.2,1.32 -1.90667,0 -2.49334,-2.64 -1.17333,-5.866668 -2.78666,-7.920002 -0.73334,-1.026667 -0.73334,-2.346667 0,-1.32 1.32,-2.053333 1.32,-0.88 3.37334,-0.586667 2.05333,0.293334 3.66666,0.293334 7.04,0 26.25334,-5.280001 13.49333,-3.813333 21.41333,-3.813333 4.4,0 4.4,2.2 0,2.2 -1.61333,4.546667 -1.46667,2.2 -8.21333,5.426667 -1.17334,0.586666 -1.17334,1.173333 0,0.586667 0.73334,1.173333 3.22666,2.640001 3.22666,4.400001 0,1.026666 -1.90666,2.933338 -1.90667,1.90666 -4.54667,6.45333 -2.64,4.54667 -2.64,5.42667 0,0.73333 1.32,0.58666 3.22667,-0.29333 7.48,-0.29333 l 22,0.44 q 3.66667,0 5.28,-0.14667 1.76,-0.29333 2.64,-0.29333 z m -21.26667,23.17333 q 0,1.02667 -1.02666,5.28 -1.02667,4.10667 -1.46667,9.82667 -0.44,5.57333 -0.44,15.4 l 0.14667,19.50667 q 0,3.37333 -0.44,4.54666 -0.44,1.17334 -2.05334,1.17334 -1.46666,0 -7.33333,-1.76 -5.72,-1.76 -13.2,-8.36 -3.96,-3.52 -6.74667,-3.52 -0.88,0 -2.64,1.02666 -1.76,1.02667 -4.98667,2.05334 -3.08,1.02666 -5.72,2.93333 -1.32,0.88 -2.34666,0.88 -1.02667,0 -2.64,-2.2 -1.61334,-2.2 -2.34667,-10.41333 -0.73333,-8.21334 -0.73333,-15.4 0,-7.33334 0.44,-12.17334 0.44,-4.98666 1.17333,-6.01333 0.88,-1.17333 2.64,-2.05333 1.90667,-0.88 11.44,-3.22667 9.68,-2.34667 14.66667,-3.22667 4.98667,-0.88 8.94667,-0.88 4.10666,0 9.38666,2.2 5.28,2.05334 5.28,4.4 z m -18.48,41.94667 q 1.32,0 1.90667,-0.88 0.73333,-0.73333 1.02667,-3.96 0.44,-3.22667 0.44,-7.33333 0,-4.25334 -0.58667,-9.82667 -0.44,-5.72 -1.17333,-10.70667 -0.73334,-5.13333 -1.17334,-5.86666 -0.44,-0.88 -1.32,-1.17334 -0.73333,-0.29333 -3.22667,-0.29333 -2.34666,0 -6.74666,0.88 -4.25334,0.88 -7.48,2.34667 -3.08,1.32 -3.52,1.90666 -0.44,0.58667 -0.44,2.05334 0,1.46666 0.14666,2.2 0.29334,0.73333 0.88,0.73333 0.58667,0 1.32,-0.14667 6.16,-1.90666 10.56,-1.90666 2.93334,0 2.93334,3.81333 0,3.81333 -3.37334,5.13333 -3.22666,1.32 -7.18666,3.22667 -3.96,1.76 -4.4,2.2 -0.29334,0.44 -0.29334,2.34667 0,1.76 -0.29333,3.08 -0.29333,1.17333 -0.29333,1.90666 0,0.73334 0.73333,0.73334 0.73333,0 4.10667,-0.88 3.37333,-0.88 5.42666,-0.88 2.05334,0 2.93334,1.02666 1.02666,0.88 1.32,3.81334 0.44,2.93333 1.02666,3.81333 0.58667,1.02667 2.93334,1.76 2.34667,0.88 3.81333,0.88 z"
         style="font-size:146.66667175px;line-height:1.25;fill:#3b8ecc;fill-opacity:1;fill-rule:nonzero"
         id="path873" />
      <path
         d="m 894.42756,70.953777 q 3.52,0 5.42666,3.96 1.90667,3.960001 1.90667,6.013334 0,2.933333 -2.93333,2.933333 -0.73334,0 -1.46667,-0.146666 -0.73333,-0.146667 -1.76,-0.146667 -4.10667,0 -11.88,2.2 -7.62667,2.2 -10.85334,4.4 -3.08,2.2 -4.4,5.573334 -1.32,3.373333 -2.34666,4.253333 -0.88,0.733332 -4.69334,1.466672 -3.81333,0.58666 -12.46666,0.58666 -8.65334,0 -8.65334,-1.61333 0,-1.613335 7.77334,-6.306669 7.77333,-4.84 12.32,-6.453333 4.54666,-1.613333 8.94666,-3.96 4.54667,-2.346667 12.76001,-7.480001 8.36,-5.28 12.32,-5.28 z m 13.78666,41.653333 q 1.17334,0 2.05334,0.73334 1.02666,0.73333 3.37333,4.10666 2.49333,3.37334 2.93333,5.13334 0.58667,1.61333 0.58667,3.81333 0,3.66667 -2.64,3.66667 -1.32,0 -3.52,-1.46667 -2.2,-1.46667 -4.69333,-1.46667 -2.49334,0 -6.30667,0.44 -3.81333,0.44 -8.65333,1.46667 -4.69334,1.02667 -6.16,1.46667 -1.32,0.29333 -2.34667,1.61333 -0.88,1.32 -0.88,4.84 l 0.14667,9.68 q 0,6.01333 -0.44,9.82667 -0.44,3.81333 -0.44,8.50666 0,4.69334 0.29333,9.82667 0.44,5.13333 0.44,5.28 0,4.98667 -4.10667,4.98667 -1.61333,0 -8.50667,-1.46667 -6.74666,-1.32 -11.73333,-4.4 -4.98667,-3.08 -13.78667,-11.88 -1.32,-1.17333 -2.34666,-1.17333 -1.02667,0 -1.90667,1.76 -0.73333,1.76 -1.46667,4.10666 -1.17333,4.10667 -2.49333,4.10667 -1.17333,0 -3.22667,-1.76 -2.05333,-1.76 -8.06666,-4.98667 -1.46667,-0.88 -1.46667,-2.64 0,-1.90666 1.90667,-3.37333 2.05333,-1.46667 4.84,-3.96 2.93333,-2.49333 4.4,-4.25333 1.61333,-1.76 7.92,-6.74667 6.45333,-5.13333 7.48,-5.13333 1.02666,0 1.02666,1.17333 0,3.08 -1.61333,4.4 -1.61333,1.61333 -3.81333,6.30667 -2.2,4.54666 -2.2,6.01333 0,2.78667 6.30666,4.98667 6.45334,2.2 14.52,2.2 4.98667,0 6.45334,-0.88 1.61333,-0.88 2.05333,-3.96 0.58667,-3.08 0.58667,-8.36 0,-5.42667 -0.88,-10.26667 -0.88,-4.84 -1.17334,-7.62667 -0.14666,-2.78666 -1.32,-2.78666 -1.17333,0 -2.05333,0.14666 -6.89333,1.17334 -15.84,1.90667 -3.22667,0.29333 -7.77333,2.2 -4.4,1.76 -8.50667,4.84 -1.02667,0.73333 -2.2,0.73333 -1.17333,0 -2.64,-1.76 -1.32,-1.90666 -2.49333,-3.22666 -1.17334,-1.46667 -1.17334,-2.49334 0,-1.90666 1.90667,-2.2 2.05333,-0.29333 4.54667,-3.22666 2.49333,-2.93334 3.81333,-8.36 3.37333,-13.93334 6.16,-13.93334 0.58667,0 2.05333,1.02667 1.61334,0.88 6.6,2.34667 2.2,0.58666 2.2,2.05333 0,1.32 -2.2,2.78667 -2.2,1.46666 -3.52,4.54666 -1.32,3.08 -1.32,4.25334 0,1.02666 1.17334,1.02666 1.17333,0 2.78666,-0.44 l 8.94667,-2.49333 q 7.04,-1.90667 8.21333,-2.2 1.32,-0.29333 2.05334,-1.32 0.88,-1.02667 1.02666,-1.76 0.29334,-0.88 0.29334,-5.86667 0,-4.98666 -0.44,-6.30666 -0.29334,-1.32 -0.29334,-3.08 0,-4.400005 2.78667,-4.400005 1.46667,0 7.18667,2.053335 5.86667,2.05333 6.45333,2.78667 0.58667,0.58666 0.58667,2.34666 0,1.76 -1.90667,3.66667 -2.2,1.90667 -2.2,5.42667 0,1.90666 1.90667,1.90666 0.58667,0 4.25333,-0.88 3.66667,-0.88 8.8,-1.46666 5.28,-0.58667 6.89334,-1.46667 1.61333,-1.02667 2.78666,-1.02667 z m -14.22666,33.14667 q 2.2,0 12.46666,3.66667 10.26667,3.52 11.58667,4.84 1.46667,1.17333 1.46667,6.89333 0,5.72 -1.90667,9.68 -1.90667,4.10667 -3.37333,4.10667 -1.32,0 -3.37334,-2.05334 -1.90666,-2.05333 -8.94666,-10.70666 -7.04,-8.65334 -8.50667,-10.85334 -1.46667,-2.34666 -1.46667,-3.96 0,-1.61333 2.05334,-1.61333 z"
         style="font-size:146.66667175px;line-height:1.25;fill:#3b8ecc;fill-opacity:1;fill-rule:nonzero"
         id="path875" />
    </g>
    <g
       id="g958"
       transform="translate(-11.1125,49.873958)">
      <path
         sodipodi:nodetypes="accsccscscccccsscaaaacccsssccsccsccccccscsccccccccsccccccccaccccccaccscssccccsccccccccccssccccsscc"
         style="fill:#31c3ee;stroke-width:0.11447985"
         d="m 54.713487,235.21767 c -2.769422,-0.0148 -5.20613,-0.52254 -7.876627,-1.64138 -7.398857,-3.35851 -9.572504,-8.31321 -11.188821,-13.57103 -0.809989,-2.66416 -1.092638,-6.34105 -0.565129,-8.9437 0.75145,-3.70754 2.756642,-7.48766 5.294248,-9.98053 1.213739,-1.24447 2.652956,-2.30441 3.517674,-2.8436 3.551393,-2.2611 7.493351,-3.34619 11.734492,-3.15654 3.581374,0.16015 6.47624,1.01467 9.413321,2.77866 0.669546,0.40213 1.251908,0.73114 1.29414,0.73114 0.04223,0 0.316312,-0.12736 0.60907,-0.28302 0.659606,-0.35071 2.975873,-0.10238 3.804956,0.0754 -0.808726,-0.52691 -2.339669,-1.58676 -3.432849,-2.12599 -4.6566,-2.49553 -11.370728,-2.74136 -15.764586,-1.89863 -1.848123,0.37478 -3.373066,0.93021 -5.62622,2.04921 -0.739826,0.36742 -1.345138,0.65474 -1.345138,0.63847 0,-0.11097 1.887075,-1.29127 2.976476,-1.86168 1.766672,-0.92503 3.085925,-1.43343 4.991421,-1.92357 3.602179,-0.92655 7.485132,-0.8152 11.142339,-0.1652 1.98128,0.35214 3.840004,1.25595 5.635804,2.16401 0.730657,0.36946 1.419893,0.82497 2.068317,1.32488 1.853519,1.42898 3.644448,2.97653 5.16671,4.75424 0.695329,0.81201 0.71819,0.88823 1.78255,2.6661 0.81271,1.35035 1.58761,3.12735 2.25373,5.16823 0.248032,0.75991 0.366287,1.57954 0.366287,1.57954 0,0 0.374015,0.0907 0.544219,0.17678 0.267728,0.13542 0.506272,0.33684 0.715655,0.53704 0.156015,0.14916 0.325161,0.42732 0.506129,0.40393 0.185111,-0.0239 0.64851,-0.95664 0.93407,-1.93469 0.0993,-0.33999 0.34314,-0.97106 0.54194,-1.40238 0.33734,-0.73187 0.38604,-0.7842 0.72976,-0.7842 0.45565,0 0.85237,0.30251 1.27593,0.97295 0.303891,0.45029 0.492262,0.92395 0.49704,1.37389 0,0.80295 -0.016,0.8586 -0.24678,0.8586 -0.13573,0 -0.59132,-0.23542 -1.01242,-0.52314 -0.63248,-0.43216 -0.863228,-0.44212 -1.220785,-0.48861 l -0.360121,0.0108 -0.660544,1.57334 c -0.5282,1.32707 -0.68833,1.61283 -1.13304,2.02199 l -0.5179,0.43104 v 1.65236 c 0,2.68071 -0.44125,5.27008 -1.33618,7.84115 -0.39357,1.13071 -1.34391,3.27929 -1.45046,3.27929 -0.0301,0 0.11966,-0.48799 0.33283,-1.08442 0.47326,-1.32412 0.89318,-2.95498 1.15167,-4.47277 0.21428,-1.25816 0.306191,-5.03219 0.141051,-6.3742 -0.02138,-0.34982 -0.06444,-0.71467 -0.06444,-0.71467 0,0 -0.224831,-0.0844 -0.414147,-0.12529 -0.98275,-0.2124 -1.857961,-0.61009 -1.9092,-1.50051 0.02395,-0.6888 0.36097,-1.01264 0.84779,-1.35478 0.195412,-0.12576 0.657051,-0.32699 0.657051,-0.32699 -0.03677,-0.25258 -0.1395,-0.63353 -0.216109,-0.94869 -0.185482,-0.76303 -0.95517,-2.50499 -1.50093,-3.57771 0,0 0.236638,0.83903 -0.02335,1.85391 -0.27455,1.07169 -1.13268,1.88989 -2.53975,2.42152 -0.446827,0.15607 -0.780858,0.2609 -0.780858,0.2609 0,0 0.09677,0.62303 0.233278,1.51923 0.22323,1.46557 0.24545,3.39583 0.0561,4.8706 -0.21464,1.6714 -0.73375,3.87379 -1.19003,5.04887 -2.197404,5.96769 -9.57211,12.93732 -18.839628,12.96982 z m 9.94691,-6.39074 c 1.224949,-0.96145 0.981201,-2.87801 -0.176285,-4.66828 -1.006693,-1.5554 -4.356575,-8.06051 -6.633894,-6.1709 -4.925395,-6.57703 -9.820055,-12.61432 -14.85111,-19.14395 -0.539455,0.36613 -1.650944,1.3171 -1.650944,1.3171 3.942688,5.3398 9.262471,12.40077 14.235699,19.39113 -2.431367,2.20143 2.080855,6.07564 4.469355,7.96194 1.253192,0.9897 3.351027,2.2989 4.607179,1.31296 z m 7.804818,-24.23607 c 0.66378,-0.27735 2.35469,-0.33707 3.29105,-0.11623 0.42891,0.10115 1.157109,0.44023 1.157109,0.44023 0,0 -1.176439,-1.75609 -2.346499,-3.11129 -0.81589,-0.94498 -3.343894,-3.22741 -3.567663,-3.22741 -0.09757,0 0.142138,0.44919 0.142138,0.88889 0,0.8969 -0.195774,1.4602 -0.710866,2.04538 l -0.441606,0.50169 0.607854,0.78672 c 0.33432,0.4327 0.779303,1.0539 0.988853,1.38045 0.20954,0.32655 0.39509,0.59373 0.41232,0.59373 0.0172,0 0.22752,-0.082 0.46731,-0.18216 z m 4.91008,17.98898 c -0.20686,-0.20685 -0.281,-0.40469 -0.281,-0.7498 0,-0.59566 0.22508,-1.02908 0.77035,-1.48339 l 0.43169,-0.35967 -0.34344,-0.29822 c -0.18889,-0.16401 -0.66788,-0.59048 -1.06442,-0.94769 -0.71497,-0.64407 -0.71926,-0.6516 -0.51516,-0.90364 0.11507,-0.1421 0.43296,-0.30458 0.72098,-0.36851 0.28334,-0.0629 0.70724,-0.24062 0.942,-0.39493 0.23477,-0.15432 0.45371,-0.28058 0.48654,-0.28058 0.0328,0 0.0597,0.18475 0.0597,0.41057 0,0.35001 -0.0968,0.50354 -0.65616,1.04103 l -0.65617,0.63047 0.40757,0.36134 c 0.22416,0.19874 0.67398,0.59679 0.9996,0.88456 0.48213,0.42608 0.59204,0.59164 0.59204,0.89178 0,0.73296 -0.83724,1.84768 -1.38774,1.84768 -0.12396,0 -0.35183,-0.12645 -0.50638,-0.281 z"
         id="path941"
         inkscape:connector-curvature="0" />
      <path
         style="fill:#3d92d0;stroke-width:0.11447985"
         d="m 70.703253,220.89059 c 0,0 1.530689,1.04059 2.507328,2.2076 1.482806,2.08817 1.663886,2.94062 1.747017,4.4741 0.06546,0.79786 -0.128929,1.92303 -0.400493,2.55718 -1.200108,2.80249 -4.894412,6.17828 -8.420026,7.69408 -1.56433,0.67257 -2.709648,0.91824 -4.258264,0.91341 -1.003353,-0.003 -1.469404,-0.0567 -1.927392,-0.2215 l -9.9e-5,7.1e-4 c -1.230556,-0.44281 -2.148117,-1.20005 -3.021142,-2.49327 l -0.560302,-0.82998 c -6.070031,-0.0978 -11.162605,-2.41225 -13.971186,-6.68504 -3.917252,-5.98651 -5.551951,-12.27673 -3.544518,-18.26851 0.824143,-2.4599 2.424163,-4.87183 4.146628,-6.25077 l 0.418768,-0.33526 c 0,0 -2.791802,-4.03353 -4.271933,-5.98839 -0.685136,-0.90488 -1.942409,-2.57328 -2.131726,-2.65513 -0.175666,-0.076 -0.737836,-0.11464 -1.356121,-0.0933 l -1.056071,0.0364 -0.211583,-0.82516 c -0.241259,-0.9409 -0.746751,-2.19395 -1.190565,-2.95126 -0.226025,-0.38568 -0.372608,-0.51658 -0.578476,-0.51658 -0.609238,0 -1.4706,-0.26685 -1.793909,-0.55575 -0.747109,-0.6676 -0.467464,-1.76193 0.563512,-2.20519 0.458242,-0.19702 0.591188,-0.1932 0.966894,-0.10689 0.233302,0.0695 0.371244,0.15242 0.572879,0.27513 0.284478,0.22601 2.194917,1.5666 2.194917,1.5666 0,0 0.169416,-0.10885 0.181511,-0.46214 0.05016,-0.32999 0.08547,-0.35136 0.330817,-0.42426 0.227322,-0.0263 0.35956,0.0144 0.416597,0.19414 0.09767,0.30774 -0.120878,0.57356 -0.471569,0.57356 -0.194406,0 -0.343639,0.20323 -0.343639,0.20323 0.364508,0.2796 1.096089,0.75885 1.096089,0.75885 0,0 0.193997,-0.0922 0.172859,-0.42429 -0.08444,-0.33644 0.18658,-0.58629 0.520869,-0.48019 0.179595,0.057 0.232109,0.1542 0.205834,0.38098 -0.02754,0.23768 -0.110592,0.31736 -0.378716,0.36335 -0.430076,0.10882 -0.420136,0.24245 -0.420136,0.24245 l 1.107016,0.7694 0.114479,-0.25129 c 0.161933,-0.38176 0.402156,-0.64666 0.586417,-0.64666 0.269201,0 0.173462,0.32813 -0.157117,0.5385 -0.173151,0.11018 -0.377131,0.38399 -0.41792,0.44171 0.101837,0.0763 0.400277,0.28842 0.944777,0.67941 l 0.990001,0.71088 0.05724,0.79272 c 0.0557,0.77143 0.07646,0.81622 0.772739,1.66775 0.698897,0.91721 1.355787,1.70422 1.958042,2.47407 0.60101,0.77078 1.176089,1.47309 1.176089,1.47309 0,0 0.608887,0.72523 1.259256,1.5437 1.058952,1.33265 1.212653,1.48148 1.471198,1.42456 2.041513,-0.44948 2.579766,-0.52414 3.78879,-0.52551 5.402608,-0.006 10.101657,2.8733 11.203231,6.86499 0.12997,0.47096 0.236309,1.09062 0.236309,1.37701 0,0.36458 0.150127,0.86302 0.500662,1.66226 0.275363,0.62785 0.73994,1.77974 1.032394,2.55975 0.536091,1.42983 1.170821,2.73849 1.533198,3.16109 0.425309,0.49599 2.45596,1.65778 2.45596,1.65778 m -3.503373,19.10722 c 3.305641,-1.02059 6.693654,-4.0412 8.452307,-7.53571 0.596395,-1.18506 0.862547,-2.19065 0.860998,-3.25308 -0.0013,-0.89389 -0.221809,-2.05996 -0.428655,-2.26681 -0.05477,-0.0548 -0.414672,0.38487 -0.812533,0.99254 -2.646985,4.04283 -6.506506,6.93724 -11.121277,8.34029 -0.535194,0.16272 -1.097111,0.31438 -1.248705,0.33702 -0.461014,0.0689 -0.697454,0.48038 -0.697454,1.21389 0,1.07295 0.728102,1.99608 1.870573,2.37163 0.635138,0.20878 2.106045,0.11474 3.124746,-0.19977 z m 0.08197,-9.22373 c 0.04308,-0.0431 -0.0692,-0.23627 -0.249515,-0.4293 -0.180316,-0.19303 -0.46792,-0.54054 -0.639119,-0.77224 -0.304487,-0.41209 -0.306282,-0.42395 -0.08237,-0.54378 0.125896,-0.0674 0.252961,-0.1225 0.282368,-0.1225 0.02941,0 0.32848,0.36061 0.664607,0.80135 0.336128,0.44075 0.647268,0.80136 0.691423,0.80136 0.194078,0 0.225543,-0.27664 0.04637,-0.40766 -0.258693,-0.18916 -1.097371,-1.31598 -1.097371,-1.47439 0,-0.0679 0.103032,-0.18785 0.22896,-0.2665 0.188064,-0.11744 0.228959,-0.11433 0.228959,0.0175 0,0.0882 0.07098,0.18768 0.157731,0.22097 0.08675,0.0333 0.327996,0.32329 0.536099,0.64444 0.208102,0.32116 0.433339,0.56563 0.500529,0.54326 0.182018,-0.0606 0.22004,-0.42199 0.04469,-0.42482 -0.151061,-0.002 -0.765939,-0.77976 -0.919031,-1.16184 -0.05832,-0.14555 0.013,-0.26798 0.25758,-0.44214 0.190202,-0.13543 0.338237,-0.34571 0.338237,-0.48044 0,-0.13177 -0.284563,-0.61767 -0.632362,-1.07976 -0.705035,-0.93672 -1.011813,-1.05444 -1.51827,-0.58259 l -0.276471,0.25758 -0.442648,-0.51178 c -0.442325,-0.51141 -0.442483,-0.51196 -0.217446,-0.7515 0.305502,-0.32519 0.283249,-0.76015 -0.05515,-1.07807 -0.213873,-0.20092 -0.356395,-0.24552 -0.601019,-0.18807 -0.176367,0.0414 -0.388652,0.0866 -0.471743,0.10032 -0.08309,0.0138 -0.312001,-0.19497 -0.508687,-0.46385 l -0.35761,-0.48887 0.251107,-0.17588 c 0.381937,-0.26752 0.30725,-0.67283 -0.274102,-1.48752 -0.552061,-0.77364 -0.700718,-0.84156 -1.233696,-0.56359 -0.180348,0.0941 -0.340051,0.17102 -0.354897,0.17102 -0.01484,0 -0.432767,-0.52804 -0.928715,-1.17342 -0.495949,-0.64538 -3.76385,-4.85681 -7.262005,-9.35873 -3.498154,-4.50192 -7.384286,-9.51185 -8.635849,-11.13317 -2.029786,-2.62946 -2.635959,-3.32337 -2.426633,-2.77788 0.03587,0.0935 1.494964,2.01246 3.242422,4.26438 2.954395,3.80727 14.780259,19.03137 15.509045,19.96566 0,0 0.301517,0.36611 0.299036,0.39168 -0.0035,0.0362 -0.302576,0.25632 -0.302576,0.25632 -0.13405,0.0878 -0.140656,0.10376 -0.212272,0.009 -3.055469,-4.04622 -18.847718,-24.45249 -19.040038,-24.64989 -0.119276,-0.12243 -0.249324,-0.19015 -0.288995,-0.15047 -0.03967,0.0397 0.973531,1.42773 2.251563,3.08459 9.036759,11.71538 16.597943,21.56709 16.756945,21.83315 0.06283,0.10514 0.0258,0.21172 -0.107407,0.30913 -0.231729,0.16944 0.217555,0.74131 -9.677745,-12.31826 -8.738573,-11.53295 -9.854742,-12.99007 -9.987042,-13.0377 -0.338738,-0.12197 -0.588737,-0.45856 10.10891,13.6101 9.284767,12.21055 9.165222,12.04667 8.915144,12.22183 -0.336414,0.23563 -0.269031,0.58517 0.265278,1.3761 0.52489,0.77699 0.850872,0.9546 1.257045,0.68491 0.238159,-0.15813 0.275002,-0.13856 0.672947,0.35744 l 0.420995,0.52472 -0.273966,0.25391 c -0.332523,0.30817 -0.339257,0.44254 -0.04626,0.92309 0.252268,0.41375 0.698484,0.50178 1.028691,0.20295 0.168238,-0.15225 0.230932,-0.11009 0.628921,0.423 0.271377,0.3635 0.389772,0.60954 0.306643,0.63725 -0.247258,0.0824 -0.474761,0.3813 -0.474761,0.6237 0,0.33282 1.214372,1.91955 1.46908,1.91955 0.112397,0 0.304355,-0.0756 0.426577,-0.16808 0.122221,-0.0924 0.273737,-0.16952 0.3367,-0.17128 0.132179,-0.004 1.087559,1.2002 1.087559,1.37046 0,0.12924 0.265284,0.1537 0.383613,0.0354 z m -3.303153,-4.3868 c -0.410173,-0.55876 -0.419255,-0.59048 -0.214023,-0.74743 0.193818,-0.14823 0.245217,-0.1285 0.537124,0.20611 0.511519,0.58635 0.555884,0.71704 0.316842,0.93337 -0.201025,0.18192 -0.232985,0.16234 -0.639943,-0.39205 z m 0.64999,-0.53434 c -0.306512,-0.40962 -0.353941,-0.54084 -0.243562,-0.67384 0.222799,-0.26846 0.411791,-0.19355 0.782108,0.31001 0.361074,0.49098 0.366028,0.59683 0.03605,0.77046 -0.15299,0.0805 -0.274372,-0.005 -0.574596,-0.40663 z m -2.414221,-1.77739 c -0.412253,-0.56058 -0.423182,-0.6189 -0.143992,-0.76831 0.174175,-0.0932 0.277866,-0.0203 0.617131,0.43416 0.38579,0.51675 0.396192,0.55345 0.192882,0.68041 -0.291811,0.18224 -0.268406,0.19441 -0.666021,-0.34626 z m 0.640817,-0.51954 c -0.397136,-0.53614 -0.398123,-0.54047 -0.161476,-0.70622 0.222084,-0.15556 0.267099,-0.13311 0.669069,0.33361 0.447887,0.52004 0.459459,0.60836 0.104581,0.79829 -0.178309,0.0954 -0.277033,0.0268 -0.612174,-0.42568 z m 7.038611,-1.19296 c 0,0 -0.365014,-0.2324 -0.723105,-0.47539 -0.848377,-0.59663 -1.988634,-1.71278 -2.385635,-2.52695 -0.258275,-0.52967 -0.371319,-0.97945 -0.463761,-1.8452 -0.06723,-0.62964 -0.168105,-1.40939 -0.224163,-1.73278 -0.130615,-0.75348 -0.923699,-2.57999 -0.953297,-2.50519 -0.04619,0.053 -0.101762,0.51451 -0.175854,0.86081 -0.344056,1.60811 -2.447213,2.86173 -2.447213,2.86173 0,0 0.113171,0.1801 0.276756,0.42494 0.164999,0.24223 0.505227,0.99122 0.839797,1.68715 0.736029,1.53101 1.124416,1.94514 2.707603,2.88709 0.848547,0.4532 1.683266,0.98694 2.424337,1.53809 0.3338,-0.40283 1.124535,-1.1743 1.124535,-1.1743 z m -13.712414,0.12197 c 0.534921,-0.14852 1.968646,-1.48201 1.86995,-1.73921 -0.0346,-0.0902 -0.896482,-1.30467 -1.915289,-2.69889 l -1.852378,-2.53494 -0.344327,0.20041 c -0.534423,0.31104 -1.526272,1.44123 -1.855665,2.11449 -1.180296,1.30634 -0.747875,3.73996 -0.747875,3.73996 0,0 0.354488,-0.25581 0.673674,-0.29862 0.364382,-0.0489 0.571327,0.0204 1.255622,0.42 1.601583,0.93537 2.012678,1.04769 2.916288,0.7968 z m 4.687515,-4.67393 c 0.03675,-0.18373 0.223376,-0.51238 0.414731,-0.73032 0.144374,-0.16443 0.432307,-0.40543 0.432307,-0.40543 l -0.31059,-0.31681 c 0,0 -0.24241,0.14125 -0.784026,0.44146 l -0.689138,0.38195 0.363402,0.47732 c 0.20814,0.26253 0.397746,0.49401 0.397746,0.49401 0,0 0.138823,-0.15845 0.175568,-0.34218 z m -0.603193,-1.6262 c 0.322444,-0.16584 0.6527,-0.32829 0.6527,-0.37172 -0.09939,-0.15211 -0.861566,-0.88589 -1.317876,-1.12655 -0.455774,-0.24038 -1.914443,-0.37734 -1.914443,-0.37734 l 1.849812,2.35019 c 0,0 0.413209,-0.30581 0.729807,-0.47458 z M 38.756955,192.71797 c 0.0011,-0.22475 -0.243173,-0.48373 -0.467914,-0.48545 -0.223865,-0.002 -0.474124,0.2525 -0.473433,0.47637 6.97e-4,0.22596 0.254849,0.4792 0.480802,0.47785 0.219046,-10e-4 0.4595,-0.24972 0.460545,-0.46877 z m -1.145307,-0.84325 c 0.002,-0.2274 -0.235658,-0.49866 -0.463059,-0.50103 -0.220722,-0.002 -0.458193,0.25615 -0.459462,0.47688 -0.0013,0.22791 0.240805,0.49681 0.468715,0.4978 0.218651,9.5e-4 0.451841,-0.25501 0.453806,-0.47365 z m -1.194989,-0.92946 c -0.03375,-0.47356 -0.742631,-0.56938 -0.876868,-0.0333 -0.03299,0.27462 0.109963,0.51628 0.446144,0.54071 0.326545,-0.0315 0.451663,-0.21365 0.430724,-0.50745 z m -1.169954,-0.79305 c -0.0098,-0.20112 -0.256255,-0.40291 -0.457438,-0.39453 -0.205312,0.009 -0.439493,0.23467 -0.431757,0.44002 0.0077,0.20403 0.256705,0.41281 0.460678,0.40369 0.206727,-0.009 0.438575,-0.24249 0.428517,-0.44918 z m -1.326661,-0.51209 c 0.21257,-0.21257 0.158418,-0.55916 -0.101214,-0.64156 -0.281296,-0.12014 -0.554504,0.0689 -0.533833,0.3363 0.0021,0.26912 0.32003,0.47168 0.635047,0.30526 z m -0.941277,-1.06117 c 0.0065,-0.15522 -0.186803,-0.32912 -0.36411,-0.33931 -0.164137,-0.009 -0.356489,0.17713 -0.355842,0.34154 6.76e-4,0.17163 0.202688,0.35729 0.374285,0.35361 0.165327,-0.004 0.338743,-0.19062 0.345667,-0.35584 z m 5.880378,3.03174 c 0.02627,-0.26987 0.122375,-0.44419 0.317626,-0.47192 0.161913,-0.023 0.286021,0.0361 0.333039,0.15866 0.102772,0.26782 -0.151029,0.57864 -0.454769,0.59469 -0.186034,0.028 -0.328821,0.41073 -0.415585,0.31689 -0.04102,-0.0444 0.226478,-0.30842 0.219689,-0.59832 z m -4.501449,-3.35451 c 0.153852,-0.36527 0.496949,-0.46149 0.496949,-0.17821 0,0.16214 -0.550862,0.73456 -0.897866,0.84411 -0.05007,0.0158 0.326529,-0.43152 0.400917,-0.6659 z m -1.247099,-0.47649 c -0.134551,-0.35865 0.317981,-0.70999 0.582056,-0.57174 0.274929,0.2296 0.03083,0.74586 -0.307488,0.70385 -0.170658,-0.0212 -0.359373,0.24506 -0.359373,0.24506 0,0 -0.04519,-0.002 -0.07678,-0.0607 0.108152,-0.0865 0.197098,-0.20674 0.161609,-0.31651 z"
         id="path937"
         inkscape:connector-curvature="0"
         sodipodi:nodetypes="ccccccccsccsccacccccsccccccccscccccccccsccccccccccccsccsccscccccsccccccscscscsccccccsscccccccsccccsssscccscsccsccscsccccccscccssccsccccscccccccccccccccccccscccccccccccccccccccccccccccccccccccaaaaaaaaaaaccsacaaacsccscaasccccscccsccccccccc" />
      <path
         sodipodi:nodetypes="cscscscscccccccccccsccccccccscccccccacccccccccccsscscccccscccccscssacccssccccccsccsccccsccccaccccccccscccccacsccsccccccccccccccccaccccccccscccacccacccccccsscccsacaccc"
         style="fill:#221f21;stroke-width:0.11447985"
         d="m 45.925379,233.17328 c -1.870952,-1.00515 -2.396144,-1.31815 -3.190736,-2.3173 -3.432974,-4.31676 -4.898511,-9.24967 -4.893626,-14.54474 0.0036,-3.85855 0.948888,-6.80589 2.684665,-9.54769 1.257067,-1.98564 2.89389,-3.11021 2.89389,-3.11021 0,0 1.681715,2.40046 3.614249,5.0449 3.507531,4.79963 3.597356,4.85786 3.597356,4.85786 0,0 -0.970746,0.55602 -1.686982,1.54807 -0.716896,0.99297 -1.179287,2.42242 -1.185209,3.43943 -0.0039,0.66756 -0.0035,0.79034 -0.0013,1.02188 -0.371507,0.4874 -0.299662,1.29178 0.25496,2.2965 0.809278,1.46606 1.763321,2.41919 3.353603,3.35041 1.874986,1.09794 2.402243,1.83444 2.667757,3.72644 0.184431,1.31423 0.707395,2.92823 1.585163,4.89224 l 0.750673,1.36185 -1.471377,0.0305 c -2.573606,0.0104 -5.808046,-0.51206 -8.973124,-2.05014 z M 60.37706,231.4363 c 0.143224,-1.024 0.37478,-1.54272 0.846381,-1.89602 0.604918,-0.45318 1.943814,-0.92516 1.986202,-0.84418 0.02269,0.0433 -0.34642,0.15854 -0.666207,0.29365 l -0.581432,0.24565 0.617482,0.83601 c 0.432235,0.5852 0.701114,0.84589 0.896252,0.86895 0.200943,0.0237 0.702491,-0.27445 1.796515,-1.06812 0.834761,-0.60559 1.570675,-1.19996 1.635366,-1.32084 0.124322,-0.2323 0.03078,-0.49717 -0.348253,-0.98613 l -0.19472,-0.25118 -0.396209,0.26923 c -0.428379,0.29109 -1.334382,0.63088 -1.542718,0.62753 -0.07102,-0.001 0.299005,-0.15139 0.645307,-0.33905 1.094914,-0.59331 1.908748,-1.76494 2.027905,-2.91946 0.08519,-0.8254 -0.313107,-1.67067 -1.244071,-2.64017 l -0.738087,-0.7307 c 0.370815,-0.41985 0.738354,-0.82477 1.06607,-1.21084 0.07279,0.0529 3.104272,1.56575 4.47831,2.61451 0.419256,0.32001 0.786068,0.70772 1.129922,1.10765 0.226349,0.26326 0.609372,0.84471 0.609372,0.84471 l -0.734801,1.04482 c -2.643815,3.93999 -6.345968,6.64156 -10.740063,8.29282 -1.384278,0.49241 -2.165232,0.65196 -2.165232,0.65196 0,0 1.359812,-1.74368 1.616709,-3.4908 z m -20.704319,-3.07021 c -2.872326,-3.41265 -4.554312,-7.25209 -4.931658,-11.94812 -0.235777,-2.93422 0.141197,-6.53016 1.284907,-9.05855 1.109129,-2.45325 2.203784,-4.04729 4.094547,-6.0416 0.416716,-0.43355 0.993805,-0.95272 0.993805,-0.95272 l 0.19434,0.29632 c 0,0 -0.247957,0.26859 -0.928876,0.99241 -3.353332,3.56461 -5.031846,8.87638 -4.611767,14.42638 0.323939,4.27981 1.948382,8.95444 4.392233,12.52068 0.334392,0.48797 0.677647,0.93735 0.652729,0.93735 -0.02492,0 -0.598817,-0.55825 -1.14026,-1.17215 z m 32.735963,-6.11957 c -0.915215,-0.829 -1.788469,-1.36505 -3.753308,-2.43479 l -1.538107,-0.82734 0.424908,-0.72927 c 0.925458,-1.79176 1.393663,-4.04451 1.263455,-6.07904 -0.217086,-3.39201 -1.309603,-6.18366 -3.714914,-9.49253 -0.05139,-0.0707 -0.271914,-0.32376 -0.271914,-0.32376 0,0 0.05914,0.0825 0.729833,0.34746 1.06628,0.40702 3.212261,0.14469 4.098298,-0.46305 0.164664,-0.10527 0.341923,-0.23208 0.341923,-0.23208 0,0 0.22757,0.32291 0.356313,0.481 0.587221,0.72109 1.625997,2.25793 1.625997,2.25793 0,0 -0.249898,0.0781 -0.548463,0.20821 -0.733396,0.31962 -1.455391,0.71309 -2.006934,1.31622 -0.571183,0.62461 -1.049244,1.52449 -0.930572,2.36252 0.132903,0.93853 0.478145,1.91979 1.7358,2.25245 1.07855,0.27316 1.758725,0.29725 3.12292,0.16649 0.550758,-0.10553 1.094391,-0.25546 1.094391,-0.25546 0,0 0.138112,0.77716 0.235796,1.49879 0.365888,2.70296 0.123966,4.77546 -0.173167,6.58097 -0.384801,2.33822 -1.290378,4.21695 -1.290378,4.21695 0,0 -0.398644,-0.46852 -0.801877,-0.85166 z m -14.021667,-7.61006 c -0.172791,-0.0112 -0.32359,0.083 -0.32359,0.083 l -0.31059,-0.31681 c 0,0 0.229072,-0.13553 0.464146,-0.38264 0.644386,-0.67739 0.837576,-1.44837 0.744811,-2.97243 -0.04032,-0.6624 -0.104935,-1.34604 -0.14359,-1.51919 -0.06514,-0.29179 -0.04385,-0.31482 0.291064,-0.31482 0.730099,0 1.819985,0.95365 2.29469,1.87163 0.0665,0.12858 0.09072,0.20165 0.125142,0.28557 -0.02602,0.11871 -0.04924,0.28157 -0.127556,0.64119 -0.249522,1.20808 -0.731475,1.96639 -1.334184,2.59408 -0.301086,0.31049 -0.590564,0.44856 -0.776476,0.51031 -0.300352,0.0998 -0.347447,0.0457 -0.347447,0.0457 -0.17636,-0.24973 -0.356612,-0.50854 -0.55642,-0.52551 z m -1.446416,-1.13242 c -0.922142,-0.76529 -1.375102,-0.94417 -2.258465,-1.06323 l -0.578401,-0.006 -3.998997,-5.04887 c -2.160861,-2.73186 -3.888868,-5.00248 -3.840014,-5.04581 0.488744,-0.43347 4.224528,-0.71801 6.006375,-0.45747 2.15051,0.31445 4.289013,1.18428 5.904649,2.4017 1.890685,1.42467 2.969716,3.23289 3.282715,5.50113 l 0.07109,0.51516 -0.482527,-0.74412 c -0.659229,-1.01662 -2.043566,-2.36062 -2.604596,-2.52871 -0.609939,-0.18274 -1.211844,0.0225 -1.457161,0.4969 -0.237442,0.45916 -0.16464,0.97262 0.372154,2.62474 0.531715,1.63649 0.625311,2.72485 0.281275,3.27076 -0.197383,0.26063 -0.03478,0.081 -0.372802,0.43663 z m 17.225735,-3.80677 c -0.450452,-1.38844 -0.77631,-2.37885 -1.618957,-3.99917 -0.327312,-0.60451 -0.576211,-0.94705 -0.576211,-0.94705 0,0 0.176951,-0.0713 0.349575,-0.13001 0.89188,-0.23595 1.228192,-0.26119 2.006648,-0.30121 0.957836,-0.0493 1.720839,0.15261 2.376104,0.33019 0.228458,0.0738 0.481602,0.16381 0.481602,0.16381 0,0 0.07419,-0.96819 -0.206521,-3.77738 -0.103424,-1.03499 -0.222444,-2.50053 -0.260844,-3.58081 l -0.0024,-1.50056 c 0.534029,-0.32314 1.185987,-0.47661 1.67844,-0.47918 0.82796,0 1.46637,0.28341 3.21496,1.42721 1.3648,0.89276 1.40336,0.90735 2.57126,0.97325 0.63169,0.0357 1.0957,0.11308 1.12004,0.18692 0.0678,0.20577 -1.23247,1.46941 -1.91232,1.85838 -0.73136,0.41845 -1.16265,0.44969 -2.63303,0.19068 -1.46949,-0.25885 -2.52721,-0.23068 -2.91932,0.0777 -0.452592,0.33245 -0.266505,0.83352 -0.24655,1.34514 0.0388,0.60262 0.12127,1.61083 0.18315,2.24046 0.19901,2.02497 0.212088,3.86788 -0.05404,4.57918 -0.35965,0.96124 -1.218148,1.75469 -2.799668,2.28888 l -0.464544,0.1654 z m -10.384463,-8.33246 c -1.857261,-1.79463 -4.907072,-3.33707 -7.727438,-4.00634 -1.852451,-0.4592 -3.529893,-0.62911 -5.407891,-0.4505 -2.131029,0.17624 -4.653268,0.81922 -6.171869,1.6361 -0.369529,0.19878 -0.994939,0.54818 -0.994939,0.54818 l -0.310451,-0.37631 c 0,0 1.893432,-1.42997 4.287355,-2.32586 2.328538,-0.92362 4.468768,-1.33621 7.317026,-1.33854 3.897406,-0.003 6.926271,0.82965 10.323307,2.83609 l 1.062809,0.62624 c 0,0 -0.443844,0.23964 -0.665135,0.42638 -0.780216,0.6584 -1.337587,1.95256 -0.944642,2.893 0.264863,0.57698 0.268799,0.52654 0.268799,0.52654 0.0053,0 -0.513803,-0.52281 -1.036931,-0.99498 z m 5.140522,-0.59036 c -0.530188,-0.54373 -1.091068,-1.06064 -1.687902,-1.53025 -0.340389,-0.26783 -1.074711,-0.73033 -1.074711,-0.73033 0,0 0.517395,-0.27014 0.795766,-0.35124 0.575833,-0.16777 1.179019,-0.27776 1.778758,-0.27126 0.479062,0.005 1.181987,0.16392 1.415813,0.24742 0.233828,0.0835 0.43523,0.14168 0.469,0.10794 0.121694,-0.12169 0.05783,-1.84129 -0.109645,-2.95245 -0.09408,-0.62415 -0.187885,-1.84488 -0.188255,-2.41965 l -0.01217,-0.80318 0.372793,-0.1449 c 0.675501,-0.2798 1.336758,-0.0993 2.869547,0.78308 1.270782,0.7316 1.48944,0.82019 2.02441,0.82019 0.32986,0 0.59975,0.0398 0.59975,0.0884 0,0.20527 -0.74201,0.96458 -1.21144,1.23969 -0.421666,0.24711 -0.599699,0.28646 -1.050512,0.23216 -0.298541,-0.0359 -1.033522,-0.099 -1.63329,-0.14 -1.479423,-0.10124 -1.439975,-0.16162 -1.272516,1.94785 0.189544,2.38767 0.343087,2.56404 -0.04619,3.75305 -0.173517,0.52999 -0.972743,1.36115 -0.972743,1.36115 -0.347622,-0.43285 -0.686269,-0.84776 -1.066463,-1.23767 z"
         id="path931"
         inkscape:connector-curvature="0" />
    </g>
  </g>
</svg>
