<svg width="300" height="66" viewBox="0 0 300 66" xmlns="http://www.w3.org/2000/svg">
  <g fill="#3b8ecc">
    <path d="M124.15 50.27l-.79.6q-1.41-1.74-3.63-1.74-1.8 0-3.12 1.27-1.3 1.27-1.3 3.09 0 1.86 1.28 3.1 1.28 1.23 3.2 1.23 2.14 0 3.57-1.67l.79.61q-.75.99-1.9 1.51-1.13.5-2.52.5-2.41 0-3.95-1.52t-1.54-3.85q0-1.44.7-2.65.73-1.23 1.99-1.92 1.27-.7 2.79-.7 1.38 0 2.54.56 1.16.55 1.89 1.58zm1.52 4.56q0-1.65 1.13-2.82 1.14-1.17 2.78-1.17 1.62 0 2.75 1.17 1.14 1.17 1.14 2.82 0 1.62-1.13 2.8-1.11 1.15-2.76 1.15t-2.78-1.16q-1.13-1.17-1.13-2.79zm6.83.01q0-1.24-.88-2.14-.86-.92-2.04-.92-1.2 0-2.06.92-.86.9-.86 2.14 0 1.27.83 2.15.83.87 2.09.87 1.21 0 2.06-.87.86-.89.86-2.15zm10.59-2.25l-.76.48q-.99-1.31-2.71-1.31-1.36 0-2.27.87-.92.86-.92 2.15t.9 2.2q.9.92 2.29.92 1.65 0 2.7-1.32l.77.51q-.56.82-1.52 1.26-.95.43-2.05.43-1.74 0-2.9-1.14t-1.16-2.78q0-1.66 1.17-2.83 1.18-1.19 3.03-1.19 1.09 0 2 .47.94.46 1.43 1.28zm1.15-4.45h.97v5.91l3.46-3.02h1.43l-4.12 3.57 4.36 3.93h-1.37l-3.76-3.38v3.38h-.97zm7.08 0h.96v10.39h-.96zm9.26 7.96l.82.42q-1.22 2.26-3.59 2.26-1.69 0-2.79-1.16-1.1-1.17-1.1-2.79 0-1.65 1.1-2.82 1.12-1.17 2.74-1.17 1.63 0 2.74 1.08 1.11 1.09 1.15 2.97h-6.74q.04 1.35.84 2.18.82.82 1.98.82 1.9 0 2.85-1.79zm0-2.05q-.2-1.07-.99-1.68-.79-.6-1.82-.6-2.11 0-2.76 2.28zm6.64-2.2l-.62.64q-.78-.75-1.51-.75-.48 0-.8.3-.33.3-.33.73 0 .46.34.79.35.3 1.09.7.96.5 1.4 1.02.44.5.44 1.25 0 .95-.66 1.6-.65.65-1.6.65-.64 0-1.24-.28-.57-.29-.98-.8l.6-.67q.75.83 1.57.83.58 0 .99-.38.4-.38.4-.9 0-.51-.36-.84-.35-.33-1.11-.73-.92-.45-1.35-.94-.4-.51-.4-1.25 0-.86.57-1.42.6-.57 1.49-.57 1.04 0 2.07 1.02zm1.72-3.71h.97v4.23q1.16-1.53 2.81-1.53.85 0 1.53.46.67.45.96 1.2.28.73.28 2.17v3.86h-.98v-3.57q0-1.16-.07-1.6-.07-.44-.3-.83-.25-.4-.66-.6-.4-.2-.96-.2-.57 0-1.1.26-.52.27-.89.75-.36.48-.49.99t-.13 2.04v2.76h-.97zm14.9 7.96l.82.42q-1.22 2.26-3.59 2.26-1.69 0-2.79-1.16-1.1-1.17-1.1-2.79 0-1.65 1.1-2.82 1.12-1.17 2.74-1.17 1.63 0 2.74 1.08 1.11 1.09 1.15 2.97h-6.74q.04 1.35.84 2.18.82.82 1.98.82 1.9 0 2.85-1.79zm0-2.05q-.2-1.07-.99-1.68-.79-.6-1.82-.6-2.11 0-2.76 2.28zm2.73-5.91h.96v10.39h-.96zm2.81 0h.96v10.39h-.96zm3.17 9.72q0-.35.25-.6.26-.25.6-.25.35 0 .59.26.25.24.25.59 0 .37-.25.62-.24.24-.6.24-.33 0-.59-.25t-.25-.61zm3.35-3.03q0-1.65 1.13-2.82 1.14-1.17 2.78-1.17 1.62 0 2.75 1.17 1.14 1.17 1.14 2.82 0 1.62-1.13 2.8-1.11 1.15-2.76 1.15t-2.78-1.16q-1.13-1.17-1.13-2.79zm6.83.01q0-1.24-.88-2.14-.86-.92-2.04-.92-1.2 0-2.06.92-.86.9-.86 2.14 0 1.27.83 2.15.83.87 2.09.87 1.21 0 2.06-.87.86-.89.86-2.15zm2.38-3.81h.99v1.09q.4-.67.76-.98.38-.3.9-.3.4 0 .86.25l-.5.81q-.22-.12-.44-.12-.44 0-.83.45-.39.45-.57 1.17-.18.7-.18 2.58v2.54h-.99zm11.18 0h.97v5.79q0 1.53-.26 2.25-.27.72-.78 1.2-.5.48-1.23.74-.72.25-1.58.25-2.93 0-3.87-2.34h1.05q.82 1.47 2.78 1.47.94 0 1.64-.37t.98-.95q.3-.56.3-1.77v-.33q-.58.72-1.37 1.07t-1.66.36q-1.64 0-2.73-1.12-1.08-1.11-1.08-2.62 0-1.57 1.15-2.7t2.71-1.13q1.74 0 2.98 1.5zm.04 3.63q0-1.23-.83-2.06-.83-.84-2.06-.84-1.3 0-2.16.9-.86.9-.86 2.07 0 1.14.83 1.96.83.8 2.13.8t2.12-.79q.83-.79.83-2.04z" aria-label="Cockleshell.org"/>
    <path d="M115.98 15.67q.74 0 .97.24.23.19.23.77t-.27.86q-.23.23-2.25 1.28l-2.83 1.43q-.82.39-1.4.39-.54 0-2.4-1-.24-.13-.43-.13-.2 0-.47.32-2.52 3.14-4.81 3.14-.35 0-.35-.2 0-.19.43-.7 2.05-2.28 4.34-5.7 2.3-3.41 2.45-4.5.08-.62.62-.62t1.51.7q.97.66.97 1.08 0 .4-.81 1.17-.78.77-1.63 1.86-.82 1.09-.82 1.24 0 .16.35.16.97 0 1.94-.43 3.03-1.36 4.66-1.36zm-15.17 3.8q0 1.1-.2 1.4-.2.27-.66.27-1.16 0-2.2-.81-1.06-.85-1.06-2.13 0-.4.2-1.48.23-1.12.74-1.47.54-.35.7-.35.19 0 .58.46.42.47.97 1.28.58.82.73 1.44.2.58.2 1.4zm23.86 12q0 .58-.23.77-.23.16-.58.16t-1.24-.47q-.86-.5-3.03-.85-2.14-.39-2.6-.39t-.62.23q-.12.24-.55 2.3-.38 2.05-.38 2.2 0 .12.3.24.32.08 1.1.42.77.35 1.47.35.74 0 1 .55.32.5.32 1.63 0 1.12-.12 1.63-.12.5-.43.5t-1-.5q-.66-.47-1.9-.97-1.25-.47-1.56-.47-.27 0-.46.43-.7 1.47-1.44 2.52-.7 1.05-.93 1.78-.2.74-.47.74-.27 0-.73-.27-.43-.27-1.63-.9-1.2-.57-2.64-1.82-1.4-1.24-1.4-1.63 0-.11.16-.11t.73.3q.62.32 1.67.51 1.09.24 1.44.24.93 0 1.67-1.25.77-1.24.77-1.5 0-.32-.39-.4l-3.6-.77q-3.23-.66-4.74-.66-.58 0-.93.11t-.62.12q-.47 0-.47-.35t.27-1.09q.32-.73.9-1.16t1.24-1.51q.66-1.09.66-1.25 0-.19-.2-.19-.19 0-1.43.23t-1.4.4q-.15.1-.23.46-.9 4.23-2.48 6.28-1.56 2.02-2.06 2.02-.2 0-.5-.35-.28-.3-1.05-1.78-.78-1.52-.97-2.45-.2-.97-.2-3.92 0-1.94.31-3.26.35-1.35.62-3.22.16-1.24.78-1.24.66 0 1.63.47 1 .46 1 1.04 0 .55-1.04 1.36-1 .78-1.75 2.6-.73 1.79-.73 3.73 0 1.9.5 2.4.5.47 1.05.47.93 0 2.02-1.6 1.08-1.58 1.43-2.75 1.75-6.01 2.3-6.01.1 0 .1.39 0 .35-.22 1.51-.2 1.16-.2 1.24 0 .35.27.35.31 0 .97-.08.7-.11 1.2-.3.51-.2 1.02-.28.54-.12.7-.35.19-.23.5-1.16.35-.97.5-1.98.16-1.05.35-1.28.24-.23 1.63-.62l2.84-.82q1.4-.42 2.56-.42t2.52.27q1.36.23 1.63.42.3.16.3.4 0 .19-.15.38-.42.54-.58 2.25l-.23 1.44q0 .27.27.38.31.12 1.79.4 1.5.23 2.44.23l1.16-.12q.4 0 .7.23.31.2.4.47.38 1.55.65 2.02.27.46.27.93zm-12.3-3.96l.35-.04q.35-.04.78-.04t.42-.66q0-1.82-.38-2.44-.35-.62-1.4-.62-1.01 0-2.3.34-1.23.35-1.47.63-.23.23-.42.97-.16.7-.5 1.59-.08.2-.08.42 0 .2.3.2l.98-.12q.42-.04.54-.15.15-.12.27-.94.16-.81.58-1.28.47-.5.74-.5.12 0 .9.43.77.42.77.81 0 .39-.16.74-.11.35-.11.5t.2.16zm-6.17 6.67q.58 0 1.24-.81.7-.86.97-1.7.27-.9.27-1.17 0-.31-.42-.31-1.4 0-1.79.15-.35.16-.54.5-.78 1.6-1.16 2.02-.35.43-.35.74t.7.47q.7.11 1.08.11zm6.02.59q.38 0 .5-.28.16-.3.43-1.74.3-1.44.3-1.79 0-.39-.23-.5-.19-.12-1.28-.2-1.04-.07-1.59-.07-.5 0-.5.3t.2.63q.19.3.57.5.4.16.4.66t-.4 1.2q-.34.66-.34.78 0 .27.3.31.36 0 .9.12.54.08.74.08zm47.34-8.27q.19 0 .38.2.2.19.74 1.31.58 1.13.66 1.44.12.27.12.85 0 .55-.35.55t-1.17-.5q-.81-.55-2.6-.86-1.74-.35-3.06-.35-.58 0-.66.54-.04.5-.04 5.82t.43 7.6q.04.32.04.55 0 .78-.43.78t-.85-.35q-.4-.31-1.25-.47-.81-.15-2.6-1-1.74-.82-2.87-1.56-1.08-.7-1.08-.93 0-.12.19-.12.23 0 .66.12 2.25.54 3.34.54t1.43-.5q.35-.47.35-1.75t-.23-4.96q-.23-3.69-.31-3.92-.04-.24-.43-.24-.35 0-1.55.24-1.2.2-1.36.27-.12.08-.12.2t.2.26q1.7 1.17 1.7 1.6 0 .15-.19.3-.2.16-.66 1.05-.46.86-.66 1.4-.15.54-.54.54-.12 0-.31-.03-.2-.08-.43-.08-.2 0-.5.08-.31.03-.47.03-.39 0-.39-.23 0-.27.12-.54.39-.78.39-1.63 0-.9-.16-1.52-.15-.62-.27-.73-.08-.12-.46-.12-.35 0-1.28.23-.35.12-.5.43-.36.58-.44 1.05l-.42 2.68q-.16 1.24-.08 1.55.08.27.08.5t-.5.82q-.47.58-1.33 1.4-.81.81-1.63 1.28-.77.5-1.63.81-.85.31-1.24.31-.35 0-.35-.23 0-.2.5-.74 1.64-1.78 2.45-3.18.86-1.4 1.28-3.22.47-1.87.47-2.68 0-.31-.55-.23-1.35.2-2.83.23-1.47.04-2.95.62-1.43.58-1.67 1.09-.23.46-.54.46-.27 0-.74-1.12-.46-1.17-.46-1.4 0-.27.2-.35.22-.11 1.74-.46 1.55-.4 2.37-.5t2.48-.55q1.7-.47 2.37-.74.7-.31.81-.5.12-.24.2-1.44.07-1.2.07-2.52 0-1.36-.04-2.3-.04-.96-.11-1.12-.04-.2-.2-.2-.11 0-.27.05-.15.04-.54.04-.66 0-.66-.4 0-.42.35-1.04.39-.66 2.02-2.72 1.66-2.05 3.14-3.64 1.47-1.6 1.7-1.79.24-.2.4-.2.27 0 1.5 1.02 1.25 1 1.25 1.36t-.39.5q-.35.12-1.7 1.24-1.33 1.13-2.84 2.52l-1.59 1.52q-.08.11-.08.27 0 .12.24.12t1.16-.47q3.88-1.75 7.22-1.75 1.78 0 3.02.62 1.25.59 1.25.94t-.7.77q-.24.16-.47 2.64-.2 2.44-.2 3.8 0 .43.24.59.23.11.39.11l1.59.08q1.44.12 2.29.12.85 0 1.05-.08.23-.08.35-.08zm-11.41-.2q1.43 0 1.74-.11.31-.16.31-.66l-.03-4.04q0-1.04-.55-1.66-.5-.62-1.4-.62-.7 0-2.52.81t-2.25 1.36q-.42.5-.42 1.78l.11 3.1q0 .74.23.74.28 0 1.2-.19.94-.2 1.06-.31.11-.15.11-.62 0-1.13-.3-2.06-.2-.66-.2-1.16 0-1.09.81-1.09.35 0 1.52.58t1.16.86q0 .27-.23.5t-.55 1.2q-.27.98-.27 1.29 0 .3.47.3zM183.3 8.42q.35 0 .55.62.23.62.43.93.19.27.77.97.62.66 1.09 1.74.46 1.1.46 1.67t-.81.59q-.54 0-1.32-.24t-1.51-.62q-.7-.39-.94-.62-.19-.23-.19-.58 0-1.79.47-3.1.5-1.36 1-1.36zm14.01 15.1q.82 0 .9.53.07.5.3.97.4.66.4 1.6 0 .89-.63.89-.3 0-.73-.23-2.22-1.17-6.52-1.17-2.84 0-5.55.5-2.68.51-4.74.7-2.05.16-3.95.7-1.87.5-2.68.5-2.1 0-3.57 1.25-.35.3-.58.3-.2 0-.5-.61t-.32-1.32.78-.7 1-.12q.63-.3 2.26-.38.85-.04 1.59-.35 3.06-1.17 7.18-2.14.93-.23 2.13-1.63 1.2-1.4 1.2-1.78 0-.39-.42-.97-.4-.62-.5-.62t-.32.23q-.97 1.36-2.44 2.91-1.44 1.55-2.06 1.55-.27 0-.5-.23-.24-.27-.24-.66t.2-.93q.23-.58.27-.86l.2-.85q0-.39-.98-.39-.66 0-.97.4-.3.34-.58.34-.5 0-.66-.7-.3-1.55-.74-2.1-.19-.27-.19-.61t.35-.55q.35-.23.9-.15.54.07.96.07 1.86 0 6.95-1.4 3.57-1 5.66-1 1.17 0 1.17.58t-.43 1.2q-.39.59-2.17 1.44-.31.15-.31.31t.2.31q.85.7.85 1.16 0 .28-.5.78-.51.5-1.21 1.7t-.7 1.44q0 .2.35.16.85-.08 1.98-.08l5.82.12q.97 0 1.4-.04.46-.08.7-.08zm-5.62 6.12q0 .27-.27 1.4-.28 1.09-.4 2.6-.1 1.47-.1 4.07l.03 5.17q0 .89-.12 1.2-.11.3-.54.3-.39 0-1.94-.46-1.51-.46-3.5-2.2-1.04-.94-1.78-.94-.23 0-.7.27-.46.27-1.32.54-.81.28-1.5.78-.36.23-.63.23t-.7-.58q-.43-.58-.62-2.75-.2-2.18-.2-4.08 0-1.94.12-3.22.12-1.32.31-1.59.24-.31.7-.54.5-.24 3.03-.86 2.56-.62 3.88-.85t2.37-.23q1.08 0 2.48.58 1.4.54 1.4 1.16zm-4.9 11.1q.36 0 .51-.23.2-.2.27-1.05.12-.85.12-1.94 0-1.13-.16-2.6-.11-1.51-.3-2.83-.2-1.36-.32-1.55-.11-.24-.35-.32-.19-.07-.85-.07-.62 0-1.78.23-1.13.23-1.98.62-.82.35-.93.5-.12.16-.12.55t.04.58q.08.2.23.2.16 0 .35-.04 1.63-.5 2.8-.5.77 0 .77 1t-.9 1.36q-.85.35-1.9.85-1.04.47-1.16.58-.08.12-.08.63 0 .46-.07.81-.08.31-.08.5 0 .2.2.2t1.08-.23q.9-.24 1.44-.24.54 0 .77.27.27.24.35 1.01.12.78.27 1.01.16.27.78.47.62.23 1 .23zm43.16-28.64q.93 0 1.44 1.05.5 1.05.5 1.6 0 .77-.78.77-.19 0-.38-.04-.2-.04-.47-.04-1.09 0-3.14.58-2.02.58-2.87 1.17-.82.58-1.17 1.47-.35.9-.62 1.13-.23.19-1.24.38-1.01.16-3.3.16t-2.29-.43q0-.42 2.06-1.67 2.05-1.28 3.26-1.7 1.2-.43 2.36-1.05 1.2-.62 3.38-1.98 2.21-1.4 3.26-1.4zm3.65 11.02q.3 0 .54.2.27.2.9 1.08.65.9.77 1.36.16.43.16 1.01 0 .97-.7.97-.35 0-.93-.39t-1.25-.38q-.66 0-1.66.11t-2.3.39q-1.24.27-1.62.39-.35.08-.63.42-.23.35-.23 1.29l.04 2.56q0 1.59-.12 2.6-.11 1-.11 2.25 0 1.24.08 2.6l.11 1.4q0 1.31-1.08 1.31-.43 0-2.26-.38-1.78-.35-3.1-1.17t-3.65-3.14q-.35-.31-.62-.31t-.5.46q-.2.47-.4 1.09-.3 1.09-.65 1.09-.31 0-.85-.47-.55-.47-2.14-1.32-.39-.23-.39-.7 0-.5.5-.89.55-.39 1.29-1.05.77-.66 1.16-1.12.43-.47 2.1-1.79 1.7-1.36 1.98-1.36.27 0 .27.31 0 .82-.43 1.17-.42.43-1 1.67-.59 1.2-.59 1.59 0 .74 1.67 1.32 1.7.58 3.84.58 1.32 0 1.7-.23.44-.24.55-1.05.16-.82.16-2.21 0-1.44-.24-2.72t-.3-2.02q-.04-.73-.36-.73-.3 0-.54.03-1.82.31-4.19.5-.85.09-2.06.6-1.16.46-2.25 1.27-.27.2-.58.2t-.7-.47q-.35-.5-.66-.85-.3-.4-.3-.66 0-.5.5-.59.54-.07 1.2-.85.66-.78 1-2.21.9-3.69 1.64-3.69.15 0 .54.27.43.24 1.75.62.58.16.58.55 0 .35-.58.74-.58.38-.93 1.2t-.35 1.12q0 .28.3.28.32 0 .75-.12l2.36-.66 2.18-.58q.34-.08.54-.35.23-.27.27-.47.08-.23.08-1.55t-.12-1.67q-.08-.35-.08-.81 0-1.17.74-1.17.39 0 1.9.55 1.56.54 1.71.73.16.16.16.62t-.5.97q-.6.5-.6 1.44 0 .5.51.5.16 0 1.13-.23.97-.23 2.33-.39 1.4-.15 1.82-.38.43-.28.74-.28zm-3.77 8.77q.59 0 3.3.97 2.72.94 3.07 1.28.39.31.39 1.83t-.5 2.56q-.51 1.09-.9 1.09-.35 0-.9-.55-.5-.54-2.36-2.83-1.86-2.29-2.25-2.87-.39-.62-.39-1.05 0-.43.54-.43z" aria-label="海舟音乐"/>
  </g>
  <g stroke-width=".11">
    <path d="M43.6 54.1a19.8 19.8 0 0 1-7.88-1.65c-7.4-3.36-9.57-8.31-11.18-13.57a20.36 20.36 0 0 1-.57-8.94 20.17 20.17 0 0 1 5.3-9.98 20.5 20.5 0 0 1 3.51-2.85 19.81 19.81 0 0 1 11.74-3.15c3.58.16 6.47 1.01 9.4 2.78.68.4 1.26.73 1.3.73.05 0 .32-.13.61-.29.66-.35 2.98-.1 3.8.08-.8-.53-2.33-1.59-3.43-2.13-4.65-2.5-11.37-2.74-15.76-1.9a21.9 21.9 0 0 0-5.63 2.05c-.74.37-1.34.66-1.34.64 0-.1 1.89-1.29 2.98-1.86a21.02 21.02 0 0 1 4.99-1.92c3.6-.93 7.48-.82 11.14-.17 1.98.35 3.84 1.26 5.63 2.17.73.37 1.42.82 2.07 1.32a34.26 34.26 0 0 1 5.17 4.76c.7.8.72.88 1.78 2.66a25.75 25.75 0 0 1 2.26 5.17c.24.76.36 1.58.36 1.58s.38.09.55.18c.26.13.5.33.71.53.16.15.33.43.5.4.2-.02.66-.95.94-1.93.1-.34.35-.97.54-1.4.34-.73.39-.78.73-.78.46 0 .86.3 1.28.97.3.45.5.92.5 1.37 0 .8-.02.86-.25.86-.14 0-.6-.23-1.01-.52-.64-.43-.87-.44-1.22-.5l-.36.02-.66 1.57c-.53 1.33-.7 1.62-1.14 2.03l-.51.43v1.65a23.59 23.59 0 0 1-2.8 11.12c-.02 0 .13-.49.34-1.09.47-1.32.9-2.95 1.15-4.47.22-1.26.3-5.03.14-6.37l-.06-.72s-.23-.08-.41-.12c-.99-.21-1.86-.61-1.91-1.5.02-.7.36-1.02.84-1.36.2-.12.66-.32.66-.32-.04-.26-.14-.64-.22-.95a23.5 23.5 0 0 0-1.5-3.58s.24.84-.02 1.85c-.27 1.07-1.13 1.9-2.54 2.42l-.78.27.23 1.51c.23 1.47.25 3.4.06 4.88a25.67 25.67 0 0 1-1.2 5.04C60.25 47.1 52.88 54.06 43.6 54.1zm9.95-6.4c1.22-.96.98-2.87-.18-4.67-1-1.55-4.35-8.06-6.63-6.17-4.93-6.57-9.82-12.61-14.85-19.14a29.1 29.1 0 0 0-1.65 1.32c3.94 5.34 9.26 12.4 14.23 19.39-2.43 2.2 2.08 6.07 4.47 7.96 1.25.99 3.35 2.3 4.6 1.31zm7.8-24.23a7.2 7.2 0 0 1 3.3-.12c.42.1 1.15.44 1.15.44s-1.18-1.75-2.35-3.11c-.81-.94-3.34-3.23-3.56-3.23-.1 0 .14.45.14.9 0 .89-.2 1.45-.71 2.04l-.44.5.6.79a25.05 25.05 0 0 1 1.4 1.97l.47-.18zm4.91 17.99c-.2-.21-.28-.4-.28-.75 0-.6.23-1.03.77-1.49l.43-.36-.34-.3-1.06-.94c-.72-.65-.72-.65-.52-.9.12-.15.43-.31.72-.37.29-.07.7-.25.94-.4.24-.15.46-.28.49-.28.03 0 .06.18.06.41 0 .35-.1.5-.66 1.04l-.65.63.4.36 1 .89c.49.42.6.59.6.89 0 .73-.84 1.85-1.4 1.85-.11 0-.34-.13-.5-.28z" fill="#31c3ee"/>
    <path d="M59.6 39.76s1.52 1.04 2.5 2.21c1.48 2.09 1.66 2.94 1.75 4.48a6.3 6.3 0 0 1-.4 2.55c-1.2 2.8-4.9 6.18-8.43 7.7a9.71 9.71 0 0 1-4.25.91c-1 0-1.47-.06-1.93-.22a5.94 5.94 0 0 1-3.02-2.5l-.56-.82c-6.07-.1-11.17-2.42-13.97-6.69-3.92-5.99-5.56-12.28-3.55-18.27a14.16 14.16 0 0 1 4.15-6.25l.42-.33s-2.8-4.04-4.27-6c-.69-.9-1.95-2.57-2.14-2.65a4.58 4.58 0 0 0-1.35-.1l-1.06.05-.21-.83a13.2 13.2 0 0 0-1.19-2.95c-.23-.39-.37-.52-.58-.52-.6 0-1.47-.26-1.8-.55-.74-.67-.46-1.76.57-2.2.46-.2.6-.2.97-.12.23.07.37.16.57.28.28.23 2.2 1.57 2.2 1.57s.16-.11.18-.47c.05-.33.08-.35.33-.42.22-.03.36.01.41.2.1.3-.12.57-.47.57-.2 0-.34.2-.34.2.36.28 1.1.76 1.1.76s.19-.1.17-.42c-.09-.34.18-.59.52-.48.18.05.23.15.2.38-.02.23-.1.31-.37.36-.43.1-.42.24-.42.24l1.1.77.12-.25c.16-.38.4-.65.58-.65.27 0 .18.33-.15.54-.18.11-.38.39-.42.44l.94.68 1 .71.05.8c.06.77.08.81.77 1.66.7.92 1.36 1.7 1.96 2.48.6.77 1.18 1.47 1.18 1.47l1.26 1.55c1.06 1.33 1.21 1.48 1.47 1.42 2.04-.45 2.58-.52 3.79-.53 5.4 0 10.1 2.88 11.2 6.87.13.47.24 1.09.24 1.38 0 .36.15.86.5 1.66.27.63.74 1.78 1.03 2.56a13.94 13.94 0 0 0 1.53 3.16c.43.5 2.46 1.66 2.46 1.66m-3.5 19.1c3.3-1.02 6.69-4.04 8.45-7.53a7 7 0 0 0 .86-3.25c0-.9-.22-2.06-.43-2.27-.06-.06-.42.38-.81 1a20.18 20.18 0 0 1-12.37 8.67c-.46.07-.7.48-.7 1.21 0 1.08.73 2 1.87 2.37.64.21 2.1.12 3.13-.2zm.08-9.22c.04-.04-.07-.24-.25-.43-.18-.2-.47-.54-.64-.77-.3-.41-.3-.42-.08-.54.12-.07.25-.13.28-.13.03 0 .33.36.66.8.34.45.65.8.7.8.19 0 .22-.27.04-.4a5.96 5.96 0 0 1-1.1-1.48c0-.06.1-.18.23-.26.19-.12.23-.12.23.01 0 .1.07.2.16.23s.33.32.54.64c.2.32.43.57.5.54.18-.06.22-.42.04-.42-.15 0-.77-.78-.92-1.16-.06-.15.01-.27.26-.45.19-.13.34-.34.34-.48 0-.13-.29-.61-.64-1.08-.7-.93-1-1.05-1.51-.58l-.28.26-.44-.51c-.44-.51-.45-.51-.22-.75.3-.33.28-.76-.06-1.08-.2-.2-.35-.25-.6-.19l-.47.1c-.08.01-.31-.2-.5-.46l-.36-.5.25-.17c.38-.27.3-.67-.28-1.49-.55-.77-.7-.84-1.23-.56-.18.1-.34.17-.36.17a5499.14 5499.14 0 0 0-8.2-10.53L30 15.69c-2.03-2.63-2.64-3.33-2.43-2.78.04.1 1.5 2.01 3.24 4.26a46633.47 46633.47 0 0 0 15.81 20.36c0 .04-.3.26-.3.26-.14.09-.14.1-.21 0a3702.1 3702.1 0 0 0-19.04-24.64c-.12-.13-.25-.2-.3-.15-.03.04.98 1.42 2.26 3.08a2965.5 2965.5 0 0 1 16.76 21.83c.06.1.02.22-.11.31-.23.17.22.74-9.68-12.32-8.74-11.53-9.85-12.99-9.99-13.03-.33-.13-.58-.46 10.11 13.6 9.29 12.22 9.17 12.05 8.92 12.23-.34.23-.27.58.26 1.37.53.78.85.96 1.26.69.24-.16.28-.14.67.36l.42.52-.27.26c-.33.3-.34.44-.05.92.26.41.7.5 1.03.2.17-.15.23-.1.63.42.27.37.4.61.3.64-.24.08-.47.38-.47.63 0 .33 1.22 1.92 1.47 1.92a.9.9 0 0 0 .43-.17.7.7 0 0 1 .34-.17c.13 0 1.08 1.2 1.08 1.37 0 .13.27.15.39.03zm-3.3-4.39c-.42-.55-.43-.59-.22-.74.2-.15.24-.13.54.2.5.59.55.72.31.94-.2.18-.23.16-.64-.4zm.64-.53c-.3-.41-.35-.54-.24-.67.22-.27.41-.2.78.3.36.5.37.6.04.78-.15.08-.28 0-.58-.41zm-2.41-1.78c-.41-.56-.42-.62-.14-.77.17-.09.27-.02.61.44.39.52.4.55.2.68-.3.18-.27.2-.67-.35zm.64-.52c-.4-.53-.4-.54-.16-.7.22-.16.27-.14.67.33.45.52.46.6.1.8-.18.1-.27.03-.61-.43zm7.04-1.19l-.72-.48a8.51 8.51 0 0 1-2.39-2.52 4.95 4.95 0 0 1-.46-1.85c-.07-.63-.17-1.4-.23-1.73a11.4 11.4 0 0 0-.95-2.5c-.05.05-.1.5-.18.86-.34 1.6-2.44 2.86-2.44 2.86l.27.42c.17.24.5 1 .84 1.69.74 1.53 1.13 1.94 2.71 2.89.85.45 1.68.98 2.42 1.53.34-.4 1.13-1.17 1.13-1.17zm-13.71.12c.53-.15 1.97-1.48 1.87-1.74-.04-.09-.9-1.3-1.92-2.7l-1.85-2.53-.35.2a6.78 6.78 0 0 0-1.85 2.11c-1.18 1.31-.75 3.74-.75 3.74s.36-.25.68-.3c.36-.04.57.03 1.25.43 1.6.93 2.01 1.04 2.92.8zm4.68-4.67a2 2 0 0 1 .42-.73c.14-.17.43-.4.43-.4l-.3-.32-.8.44-.68.38.36.48.4.49s.14-.16.17-.34zm-.6-1.63c.32-.16.65-.33.65-.37a6 6 0 0 0-1.31-1.13 8.31 8.31 0 0 0-1.92-.37l1.85 2.35s.41-.3.73-.48zM27.65 11.6c0-.23-.25-.5-.47-.5-.23 0-.48.26-.48.48 0 .23.26.48.48.48.22 0 .46-.25.47-.47zm-1.15-.85c0-.23-.24-.5-.46-.5-.22 0-.46.25-.46.47 0 .23.24.5.47.5.21 0 .45-.25.45-.47zm-1.2-.93c-.03-.48-.74-.57-.87-.04-.03.28.1.52.44.55.33-.04.46-.22.43-.51zm-1.16-.8c-.01-.2-.26-.4-.46-.39-.2.01-.44.24-.43.44 0 .2.25.41.46.4.2 0 .44-.24.43-.44zm-1.33-.5c.21-.22.16-.57-.1-.65-.28-.12-.56.07-.54.34 0 .27.32.47.64.3zm-.94-1.07c0-.15-.19-.33-.37-.34-.16 0-.35.18-.35.34 0 .18.2.36.37.36.17 0 .34-.2.35-.36zm5.88 3.03c.02-.27.12-.44.32-.47.16-.02.28.04.33.16.1.27-.15.58-.46.6-.18.02-.33.4-.41.31-.04-.04.22-.3.22-.6zm-4.5-3.35c.15-.37.5-.46.5-.18 0 .16-.56.74-.9.85-.05.01.32-.44.4-.67zM22 6.65c-.14-.36.32-.7.58-.57.28.23.03.75-.3.7-.18-.02-.37.25-.37.25s-.04 0-.07-.06c.1-.09.2-.2.16-.32z" fill="#3d92d0"/>
    <path d="M34.81 52.04c-1.87-1-2.4-1.31-3.19-2.31a22.65 22.65 0 0 1-4.9-14.55c.01-3.86.96-6.8 2.7-9.55 1.25-1.98 2.89-3.1 2.89-3.1s1.68 2.4 3.61 5.04c3.5 4.8 3.6 4.86 3.6 4.86s-.97.55-1.69 1.54a6.6 6.6 0 0 0-1.18 3.44v1.03c-.38.48-.3 1.29.25 2.3a8.22 8.22 0 0 0 3.35 3.34c1.88 1.1 2.4 1.84 2.67 3.73a19 19 0 0 0 1.59 4.9l.75 1.35-1.47.03a20.5 20.5 0 0 1-8.98-2.05zm14.45-1.73c.15-1.03.38-1.55.85-1.9.6-.45 1.95-.92 1.99-.84.02.04-.35.16-.67.29l-.58.25.62.83c.43.59.7.85.9.87.2.02.7-.27 1.79-1.07.83-.6 1.57-1.2 1.64-1.32.12-.23.03-.5-.35-.98l-.2-.26-.4.27a4.6 4.6 0 0 1-1.54.63c-.07 0 .3-.15.65-.34 1.1-.6 1.9-1.76 2.03-2.92.08-.82-.32-1.67-1.25-2.64l-.74-.73 1.07-1.2c.07.04 3.1 1.56 4.48 2.6a7.62 7.62 0 0 1 1.74 1.96l-.74 1.04a21.84 21.84 0 0 1-12.9 8.95s1.36-1.75 1.62-3.5zm-20.7-3.07a20.44 20.44 0 0 1-4.93-11.95c-.24-2.94.14-6.53 1.28-9.06a19.8 19.8 0 0 1 5.1-7l.19.3-.93 1c-3.36 3.56-5.03 8.87-4.61 14.42a26.66 26.66 0 0 0 4.39 12.52c.33.49.68.94.65.94-.02 0-.6-.56-1.14-1.17zm32.74-6.12c-.92-.83-1.8-1.37-3.76-2.44l-1.53-.82.42-.73c.93-1.8 1.4-4.05 1.26-6.08-.21-3.4-1.3-6.19-3.71-9.5l-.27-.32s.06.08.73.35a5.7 5.7 0 0 0 4.1-.47l.34-.23s.22.33.35.48c.6.72 1.63 2.26 1.63 2.26s-.25.08-.55.21c-.73.32-1.45.71-2 1.32-.58.62-1.06 1.52-.94 2.36.14.94.48 1.92 1.74 2.25a7.84 7.84 0 0 0 4.22-.09s.13.78.23 1.5c.37 2.7.13 4.78-.17 6.58-.39 2.34-1.3 4.22-1.3 4.22s-.39-.47-.8-.85zM47.27 33.5c-.17-.01-.32.08-.32.08l-.3-.32s.22-.13.45-.38c.65-.68.84-1.45.75-2.97a16.5 16.5 0 0 0-.14-1.52c-.07-.3-.05-.32.29-.32.73 0 1.82.96 2.3 1.88l.12.28-.13.64a4.96 4.96 0 0 1-1.33 2.6c-.3.3-.6.45-.78.5-.3.1-.35.05-.35.05-.17-.25-.36-.5-.56-.52zm-1.44-1.14a3.73 3.73 0 0 0-2.26-1.06h-.58l-4-5.05a85.5 85.5 0 0 1-3.84-5.05c.5-.43 4.23-.72 6-.46 2.16.32 4.3 1.19 5.91 2.4a7.99 7.99 0 0 1 3.29 5.5l.07.52-.49-.74c-.65-1.02-2.04-2.36-2.6-2.53-.61-.18-1.21.02-1.46.5-.23.45-.16.97.38 2.62.53 1.64.62 2.72.28 3.27-.2.26-.04.08-.38.44zm17.22-3.8a22.4 22.4 0 0 0-1.61-4c-.33-.6-.58-.95-.58-.95l.35-.13a7.77 7.77 0 0 1 4.38.03l.48.16s.08-.96-.2-3.77c-.1-1.04-.23-2.5-.26-3.58v-1.5a3.47 3.47 0 0 1 1.67-.48c.83 0 1.47.28 3.22 1.42 1.36.9 1.4.91 2.57.98.63.03 1.1.11 1.12.18.07.21-1.23 1.47-1.91 1.86-.74.42-1.17.45-2.64.2-1.47-.27-2.52-.24-2.92.07-.45.33-.26.83-.24 1.35a81 81 0 0 0 .18 2.24c.2 2.02.21 3.86-.05 4.58-.36.96-1.22 1.75-2.8 2.28l-.47.17zm-10.38-8.33a17.77 17.77 0 0 0-7.73-4.01 17.63 17.63 0 0 0-11.58 1.18l-1 .55-.3-.37s1.9-1.43 4.29-2.33a18.61 18.61 0 0 1 7.31-1.34c3.9 0 6.93.83 10.33 2.84l1.06.62s-.45.24-.67.43c-.78.66-1.33 1.95-.94 2.9.26.57.27.52.27.52s-.52-.52-1.04-1zm5.14-.6a17.54 17.54 0 0 0-1.69-1.53c-.34-.26-1.07-.73-1.07-.73s.52-.27.8-.35a6.17 6.17 0 0 1 1.77-.27c.48 0 1.19.17 1.42.25.23.08.43.14.47.1.12-.11.06-1.83-.11-2.95-.1-.62-.19-1.84-.19-2.41l-.01-.8.37-.15c.68-.28 1.34-.1 2.87.78 1.27.73 1.49.82 2.02.82.33 0 .6.04.6.09 0 .2-.74.96-1.2 1.24-.43.25-.6.29-1.06.23-.3-.04-1.03-.1-1.63-.14-1.48-.1-1.44-.16-1.27 1.95.19 2.39.34 2.56-.05 3.75a5.3 5.3 0 0 1-.97 1.36c-.35-.43-.69-.84-1.07-1.23z" fill="#221f21"/>
  </g>
</svg>
